<?xml version="1.0" standalone="no"?>
<!DOCTYPE svg PUBLIC "-//W3C//DTD SVG 1.1//EN" "http://www.w3.org/Graphics/SVG/1.1/DTD/svg11.dtd" >
<!--
2013-9-30: Created.
-->
<svg>
<metadata>
Created by iconfont
</metadata>
<defs>

<font id="iconfont" horiz-adv-x="1024" >
  <font-face
    font-family="iconfont"
    font-weight="500"
    font-stretch="normal"
    units-per-em="1024"
    ascent="896"
    descent="-128"
  />
    <missing-glyph />
    
    <glyph glyph-name="lajitong" unicode="&#58937;" d="M951.318 732.395H709.333V805.888c0 33.084-26.916 60-60 60H374.349c-33.084 0-60-26.916-60-60v-73.493H72.362c-22.091 0-40-17.909-40-40s17.909-40 40-40h878.956c22.092 0 40 17.909 40 40s-17.908 40-40 40z m-556.969 53.493h234.984v-53.493H394.349v53.493zM828.267 594.342c-22.04 1.203-40.921-15.69-42.132-37.749l-30.924-563.662H266.887L234.542 559.68c-1.259 22.055-20.165 38.929-42.214 37.656-22.055-1.259-38.915-20.159-37.656-42.214L188.03-29.38c0.888-15.551 7.688-30.077 19.148-40.901 11.46-10.825 26.351-16.787 41.927-16.787h523.972c15.593 0 30.489 5.973 41.945 16.817s18.236 25.392 19.09 40.961l31.904 581.5c1.21 22.059-15.692 40.922-37.749 42.132zM418.075 53.925c0.362 0 0.726 0.005 1.09 0.015 22.083 0.591 39.507 18.972 38.916 41.055l-12 448.478c-0.592 22.084-18.986 39.518-41.056 38.916-22.083-0.591-39.507-18.972-38.916-41.056l12-448.478c0.581-21.719 18.37-38.93 39.966-38.93zM609.111 53.926c21.594 0 39.384 17.212 39.965 38.93l12 448.477c0.591 22.083-16.832 40.465-38.915 41.056-0.366 0.01-0.728 0.015-1.091 0.015-21.594 0-39.384-17.212-39.965-38.931l-12-448.476c-0.591-22.084 16.832-40.465 38.915-41.056 0.367-0.01 0.728-0.015 1.091-0.015z"  horiz-adv-x="1024" />

    
    <glyph glyph-name="diannao" unicode="&#58882;" d="M885.3 769.8H138.7c-41.2 0-74.6-33.5-74.7-74.7v-497.8c0-41.2 33.4-74.6 74.7-74.7h345.5V54H362.7c-13.7 0-24.9-17.1-24.9-30.9 0-13.7 11.1-24.9 24.9-24.9h298.7c13.7 0 24.9 11.1 24.9 24.9 0 13.7-11.1 30.9-24.9 30.9H539.9v68.7h345.5c41.2 0 74.6 33.5 74.7 74.7V695.1c-0.1 41.2-33.5 74.6-74.8 74.7z m-733.1-62.9h719.6c13.2 0 24-5.3 24-17.5v-390.8H128.2V689.4c0 12.2 10.8 17.5 24 17.5zM876.5 187h-719c-13.4 0-24.3 10.9-24.3 24.3v24.3h767.6v-24.3c0-13.4-10.9-24.2-24.3-24.3z"  horiz-adv-x="1024" />

    
    <glyph glyph-name="baobiao" unicode="&#58883;" d="M809.6 689.4H708.2c-0.6 40.8-33.6 73.9-74.4 74.7-4 38.1-36.3 67.9-75.4 67.9h-92.7c-39.1 0-71.5-29.8-75.4-67.9-40.8-0.8-73.8-33.9-74.4-74.7H214.4c-41.1 0-74.4-33.3-74.4-74.4v-604.6c0-41.1 33.3-74.4 74.4-74.4h595.3c41.1 0 74.4 33.3 74.4 74.4V615c-0.1 41.1-33.4 74.4-74.5 74.4z m-429.6-48v47.2 1c0.5 11.4 9.9 20.4 21.4 20.4h22.4c13.3 0 24.1 10.8 24.1 24.1v16.8c0 11.8 9.6 21.5 21.5 21.5h85.2c11.8 0 21.5-9.6 21.5-21.5v-16.8c0-13.3 10.8-24.1 24.1-24.1h22.4c11.5 0 20.9-9.1 21.4-20.4v-56.5c0-11.8-9.6-21.5-21.5-21.5h-221c-11.8 0-21.5 9.6-21.5 21.5v8.3z m440-620c0-11.6-9.5-21.1-21.1-21.1H225.2c-11.6 0-21.1 9.5-21.1 21.1V604c0 11.6 9.5 21.1 21.1 21.1h97.7v-8.7c0-40.3 32.8-73.1 73.1-73.1h232c40.3 0 73.1 32.8 73.1 73.1v8.7h97.8c11.6 0 21.1-9.5 21.1-21.1v-582.6z m-99 417.2L563.6 277.4l-68.3 91.7-0.1 0.1-0.3 0.3-0.3 0.3c-0.3 0.4-0.5 0.7-0.8 1-0.2 0.2-0.4 0.5-0.6 0.7-0.2 0.2-0.4 0.5-0.6 0.7-0.3 0.3-0.6 0.7-0.9 1l-0.3 0.3-0.1 0.1c-0.4 0.4-0.8 0.8-1.2 1.1l-0.2 0.2c-0.4 0.4-0.8 0.7-1.3 1.1l-0.2 0.2c-0.4 0.3-0.8 0.7-1.2 1-0.1 0.1-0.2 0.2-0.3 0.2-0.4 0.3-0.8 0.5-1.1 0.8-0.2 0.1-0.3 0.2-0.5 0.3-0.3 0.2-0.6 0.4-1 0.6-0.2 0.1-0.4 0.3-0.7 0.4-0.2 0.1-0.5 0.3-0.8 0.4-0.3 0.2-0.6 0.3-0.9 0.5-0.2 0.1-0.3 0.2-0.5 0.3l-1.2 0.6c-0.1 0-0.2 0.1-0.3 0.1l-1.5 0.6c-2.8 1.1-5.8 1.9-8.8 2.4h-0.2c-0.5 0.1-1 0.1-1.5 0.2h-0.6c-0.4 0-0.8 0.1-1.2 0.1h-3.6c-0.5 0-1-0.1-1.5-0.1h-0.3c-0.5 0-1.1-0.1-1.6-0.2h-0.2c-0.5-0.1-1-0.2-1.6-0.3h-0.3l-1.5-0.3c-0.1 0-0.2-0.1-0.4-0.1-0.4-0.1-0.8-0.2-1.3-0.3-0.2-0.1-0.4-0.1-0.6-0.2-0.4-0.1-0.7-0.2-1-0.3-0.3-0.1-0.5-0.2-0.8-0.3-0.3-0.1-0.5-0.2-0.8-0.3-0.3-0.1-0.7-0.2-1-0.4-0.2-0.1-0.4-0.2-0.6-0.2-0.4-0.2-0.8-0.3-1.2-0.5-0.1-0.1-0.3-0.1-0.4-0.2-0.5-0.2-0.9-0.4-1.4-0.7l-0.2-0.1c-0.5-0.3-1-0.5-1.4-0.8-0.1 0-0.1-0.1-0.2-0.1-0.5-0.3-1-0.6-1.4-0.9-0.1-0.1-0.2-0.1-0.2-0.2-0.4-0.3-0.9-0.6-1.3-0.9l-0.1-0.1c-0.1-0.1-0.2-0.2-0.3-0.2-0.4-0.3-0.7-0.5-1.1-0.8-0.2-0.2-0.5-0.4-0.7-0.6-0.2-0.2-0.5-0.4-0.7-0.6-0.3-0.3-0.7-0.6-1-0.9l-0.3-0.3-0.3-0.3-0.1-0.1-188.3-186c-15-14.9-15.2-39.1-0.3-54.2 7.5-7.6 17.4-11.4 27.2-11.4 9.7 0 19.4 3.7 26.9 11l157.4 155.5 69.1-92.7c0.5-0.6 0.9-1.2 1.5-1.8l0.4-0.4c0.3-0.4 0.6-0.7 1-1.1l0.8-0.8 0.4-0.4c0.1-0.1 0.2-0.2 0.3-0.2 0.5-0.5 1-0.9 1.5-1.4 0.3-0.3 0.7-0.6 1-0.8 0.2-0.2 0.4-0.3 0.6-0.5 0.3-0.3 0.7-0.5 1-0.8 0.3-0.2 0.6-0.5 1-0.7 0.4-0.3 0.8-0.5 1.2-0.8 0.4-0.3 0.8-0.5 1.2-0.7l0.6-0.3c0.4-0.2 0.9-0.5 1.3-0.7 0.6-0.3 1.3-0.6 2-0.9 0.1-0.1 0.3-0.1 0.4-0.2 0.6-0.2 1.1-0.5 1.7-0.7l0.2-0.1c1.4-0.5 2.7-0.9 4.1-1.2 0.1 0 0.1 0 0.2-0.1 0.8-0.2 1.5-0.3 2.3-0.4 0.5-0.1 1-0.1 1.5-0.2 0.2 0 0.4-0.1 0.6-0.1 0.5 0 0.9-0.1 1.4-0.1h4.6c0.6 0 1.1 0.1 1.7 0.1h0.2c0.6 0.1 1.2 0.1 1.8 0.2 1.2 0.2 2.5 0.4 3.7 0.7 0.7 0.2 1.3 0.4 2 0.6 0.5 0.1 0.9 0.3 1.4 0.4 0.1 0 0.3 0.1 0.4 0.1 0.4 0.2 0.9 0.3 1.3 0.5 0.1 0 0.2 0.1 0.4 0.1 0.5 0.2 1 0.4 1.5 0.7 0.3 0.1 0.5 0.3 0.8 0.4 0.2 0.1 0.5 0.2 0.7 0.4 0.3 0.2 0.6 0.3 0.9 0.5l1.5 0.9c0.1 0.1 0.3 0.2 0.4 0.3 1.6 1 3.1 2.1 4.5 3.4 0.8 0.7 1.7 1.5 2.4 2.3L775.8 385c14.8 15.1 14.5 39.4-0.6 54.2-15.1 14.8-39.4 14.5-54.2-0.6z m0 0"  horiz-adv-x="1024" />

    
    <glyph glyph-name="dayin" unicode="&#58884;" d="M424 414.3H253.6c-19.1 0-34.8 14.4-34.8 32s15.6 32 34.8 32H424c19.1 0 34.8-14.4 34.8-32 0-17.5-15.7-32-34.8-32zM832.5 641.2v59.3c0 72-58.6 130.7-130.8 130.7H321.9c-72 0-130.7-58.6-130.7-130.7l1-61.3C122 637.1 64.6 581.3 64.6 510.7v-253.2c0-70.8 56.5-127.5 126.7-129.7v-60.3c0-72 58.6-130.7 130.8-130.7H702c72 0 130.7 58.6 130.7 130.7v59.3c70.1 2.2 126.6 60 126.6 130.7V510.7c-0.1 70.6-56.6 128.4-126.8 130.5zM768 700.6v-60.9H256v60.9c0 33.6 27.3 66.9 60.9 66.9h390.2c33.6-0.1 60.9-33.3 60.9-66.9zM254.7 196.2c0 33.7 27.5 61.2 61.2 61.2h392c33.7 0 61.2-27.5 61.2-61.2v-130.7c0-33.7-27.5-66.2-61.2-66.2h-392c-33.7 0-61.2 32.5-61.2 66.2V196.2z m-127.1 58.4v259c0 33.4 27.2 61.6 60.6 61.6h647.3c33.4 0 60.6-28.2 60.6-61.6v-259c0-32.1-33.1-58.4-64.6-60.5-2.3 71.7-53.3 125.4-125.5 125.4H317.7c-72.2 0-123.3-55.6-125.5-127.4-31.5 2-64.6 30.4-64.6 62.5zM424 414.3"  horiz-adv-x="1024" />

    
    <glyph glyph-name="caiwu" unicode="&#58885;" d="M211.3-63.2c-80.8 0-146.5 69.8-146.5 155.7V675.4c0 85.9 70.2 155.7 156.5 155.7h517.2c86 0 155.8-69.7 155.9-155.7v-33l2.3-1.7c39.1-29.4 62.4-76.9 62.4-127.1v-421.1c0-85.9-65.8-155.7-146.5-155.7H211.3z m17.9 830.7c-55.4 0.1-100.4-44.6-100.7-100v-567c0-55.1 40.8-100 90.9-100h585.1c50.2 0 91 44.8 91 100V510.1c0 55.1-40.8 88-91 88H291.6c-14.2 0-25.8 23.5-25.8 37.8 0 14.2 11.5 25.8 25.8 25.8h512.9c7.1 0 14-1.1 21.2-2.3l6.6-1.1 0.2 6.7v2.6c-0.1 55.2-44.9 99.9-100.1 100H229.2zM651.5 338.9c17.6 0 32 14.3 32 32v8.7c0 12.9-10.4 23.2-23.2 23.2H647c-6.8 0-10.9 7.4-7.5 13.1l39.5 66.5c2.3 3.8 2.9 8.5 1.6 13.1-1.6 6.1-6.1 11.6-12.3 15.1l-15.4 8.6c-11.4 6.4-24.6 4.3-30-4.9L559.4 407c-1.6-2.6-4.4-4.2-7.5-4.2H472c-3.1 0-6 1.6-7.5 4.2l-63.6 107.5c-5.3 9.1-18.8 11.4-30 4.9l-15.4-8.6c-6.2-3.5-10.7-9-12.3-15.1-1.3-4.6-0.7-9.3 1.6-13.1l39.5-66.6c3.4-5.9-0.8-13.1-7.5-13.1h-13.3c-12.8 0-23.2-10.5-23.2-23.2v-17.5c0-12.8 10.5-23.2 23.2-23.2h107.8c4.8 0 8.7-3.9 8.7-8.7V272c0-4.8-3.9-8.7-8.7-8.7h-99.1c-17.6 0-32-14.3-32-32 0-17.6 14.3-31.9 32-31.9h99.1c4.8 0 8.7-3.9 8.7-8.7v-114c0-17.6 14.3-31.9 32-31.9h0.1c17.6 0 31.9 14.2 31.9 31.8V190.5c0 4.8 3.9 8.7 8.7 8.7h99.2c17.6 0 31.9 14.3 31.9 31.8v8.8c0 12.8-10.4 23.2-23.2 23.2H552.4c-4.8 0-8.7 3.9-8.7 8.7v58.4c0 4.8 3.9 8.7 8.7 8.7l99.1 0.1z"  horiz-adv-x="1024" />

    
    <glyph glyph-name="bianji" unicode="&#58886;" d="M341.3 337.7c-0.6-0.8-1.1-1.6-1.5-2.5l-45.2-165.8c-2.6-9.6 0.1-20 7.3-27.4 5.3-5.2 12.3-8 19.9-8 2.5 0 5 0.3 7.4 0.9l164.7 44.8c0.2 0 0.3-0.2 0.6-0.2 1.9 0 3.7 0.7 5.1 2.2l440.2 440.2c13 13.1 20.3 30.9 20.3 50.3 0 22-9.3 43.9-25.7 60.3l-41.6 41.7c-16.3 16.3-38.3 25.7-60.3 25.7-19.4 0-37.3-7.1-50.4-20.3L341.9 339.1c-0.4-0.3-0.3-1-0.6-1.4m555.4 327.2L853 621.2l-70.9 72 43.2 43.2c6.8 6.8 20 5.9 27.9-2l41.6-41.7c4.3-4.3 6.8-10.1 6.8-15.9-0.2-4.6-1.9-8.9-4.9-11.9M419.6 330.8l317.7 317.7 70.9-72-317.1-317.2-71.5 71.5z m-57.8-128.9l23 84.3 61.3-61.3-84.3-23z m0 0M921.3 492.6c-18.7 0-34-15.3-34-34.1v-405.6c0-19-15.5-34.5-34.7-34.5H166.5c-19.1 0-34.7 15.5-34.7 34.5v662c0 19.1 15.5 34.7 34.7 34.7h441.9c18.7 0 34 15.3 34 34s-15.3 34-34 34H162c-54 0-98-43.9-98-98v-671.2c0-54 43.9-98 98-98h695.2c54 0 98.1 43.9 98.1 98V458.8c-0.2 18.6-15.3 33.8-34 33.8z m0 0"  horiz-adv-x="1024" />

    
    <glyph glyph-name="dingdan" unicode="&#58887;" d="M824.4 768c12.4 0 30-4.9 38.9-13.8 8.9-8.9 13.8-26.5 13.8-38.9v-356.6c0-47.4-9.3-93.4-27.8-136.7-17.9-42-49.4-86.7-81.9-119.3-32.6-32.6-70.3-57-112.3-74.9-43.4-18.4-89.4-27.8-136.7-27.8H199.6c-12.4 0-24 10.9-32.9 19.8-8.9 8.9-19.8 20.5-19.8 32.9V715.3c0 12.4 4.9 30 13.8 38.9 8.9 8.9 26.5 13.8 38.9 13.8h624.8m0 64H199.6c-64.2 0-116.7-52.5-116.7-116.7v-662.5c0-64.2 52.5-116.7 116.7-116.7h318.8c232.5 0 422.7 190.3 422.7 422.7V715.3c0 64.2-52.5 116.7-116.7 116.7zM707.2 575.9h-392c-17.4 0-31.6 14.2-31.6 31.6v0.7c0 17.4 14.2 31.6 31.6 31.6h392c17.4 0 31.6-14.2 31.6-31.6v-0.7c-0.1-17.4-14.2-31.6-31.6-31.6z m1.5-223.9H315.3c-17.4 0-31.7 14.3-31.7 31.7v0.6c0 17.4 14.3 31.7 31.7 31.7h393.4c17.4 0 31.7-14.3 31.7-31.7v-0.6c0-17.4-14.2-31.7-31.7-31.7zM549.3 128.1H315.6c-17.6 0-32 14.4-32 32s14.4 32 32 32h233.7c17.6 0 32-14.4 32-32s-14.4-32-32-32z"  horiz-adv-x="1024" />

    
    <glyph glyph-name="dianhua" unicode="&#58888;" d="M912 48.3l-49.6-51.1c-37.7-38.8-90.1-61.1-143.9-61.1-23 0-45.7 4-67.4 11.8-268.5 96.7-481.2 319.1-569 594.9-26.4 82.9 1.6 174.1 69.6 226.9L195 803.4C219.1 822.1 247.9 832 278.3 832c51.7 0 98.6-29.2 122.2-76.1l73.3-145.1c6.9-13.8 10.6-29.2 10.6-44.7 0-24.6-9-48.1-25.3-66.2L443.8 483c-15.2-16.8-18.5-41.7-8.2-61.9 25-49.4 63.9-89 112.4-114.5 19.6-10.3 44.7-6.8 60.8 8.3l16.6 15.5c28.9 27.1 74 33.3 108.9 15L876.9 271c46.1-24.2 74.8-71.8 74.8-124.5 0-37-14.1-71.9-39.7-98.2z m-18.9 108.5c0 46.7-194.7 129.8-194.7 129.8-27.3 10-64.9-32.5-64.9-32.5-67.7-50.1-115.4-12.1-129.8 0-42.3 35.3-99.7 111.7-129.8 162.3-22.5 37.9-12.9 82.8 0 97.4 0 0 43.6 37.7 32.5 64.9-34 84.5-87.2 209.6-129.8 194.7-37-12.2-192-63.6-121.9-251.4 124.3-332.9 383-466.9 540.5-527.6 109.6-8 206.6 130.6 197.9 162.4z"  horiz-adv-x="1024" />

    
    <glyph glyph-name="fapiao" unicode="&#58889;" d="M229.2 435.1h-56.1c-60.1 0-108.8 48.8-108.8 108.8V676.2c0 60 48.8 108.8 108.8 108.8h677.8c60.1 0 108.8-48.8 108.8-108.8v-121.7c0-60.1-48.8-108.8-108.8-108.8H748.1v64.2h102.8c29 0 44.7 15.6 44.7 44.7V676.2c0 29-15.6 44.7-44.7 44.7H173.1c-29 0-44.7-15.6-44.7-44.7V544c0-29 15.6-44.7 44.7-44.7h56.1v-64.2zM247.9-17.1c-3.2 0-6.5 0.5-9.7 1.8-11.1 4-18.4 14.6-18.4 26.3V610c0 15.6 12.6 28.1 28.1 28.1h528.2c15.6 0 28.1-12.6 28.1-28.1v-149.4c0-15.6-15.6-15.1-31.1-15.1-15.6 0-33.1-4.4-33.1 11.1V582H284v-494.8l17.1 29.5c5.1 6 12.6 9.5 20.5 9.8 7.9 0.3 15.6-2.8 21.1-8.5l66.9-68.7 85.1 68.6c10.8 8.7 26.6 8.2 36.9-1.4l71.8-67.3 78.4 68.1c11.6 10.1 29.1 8.9 39.3-2.5l19.9-30.2v236c0 15.6 19.6 28.1 35.1 28.1 15.6 0 28.1-12.6 28.1-28.1V11c0-11.7-7.2-22.1-18.1-26.2-10.9-4.1-23.2-1.1-31 7.5l-57.6 64.4-76.7-66.5c-10.8-9.4-27.1-9.1-37.7 0.7l-72.5 67.9-85.9-69.3c-11.4-9.1-27.6-8.1-37.8 2.3l-63.2 65-54.6-64c-5.3-6.5-13.1-9.9-21.2-9.9z m0 0M821 594H202.9c-15.6 0-28.1 16.6-28.1 32.1 0 15.6 12.6 31.1 28.1 31.1H821c15.6 0 28.1-16.6 28.1-32.1 0.1-15.5-12.5-31.1-28.1-31.1zM643.7 378.1H380.3c-15.5 0-28.1 14.5-28.1 32 0 17.6 12.7 32 28.1 32h263.4c15.5 0 28.1-14.5 28.1-32s-12.6-32-28.1-32zM643.7 223.4H380.3c-15.5 0-28.1 14.5-28.1 32 0 17.6 12.7 32 28.1 32h263.4c15.5 0 28.1-14.5 28.1-32s-12.6-32-28.1-32z"  horiz-adv-x="1024" />

    
    <glyph glyph-name="gongzuo" unicode="&#58890;" d="M891.6 1.4H132.4C94.6 1.4 64 32 64 69.8v478c0 37.8 30.6 68.4 68.4 68.4h759.2c37.8 0 68.4-30.6 68.4-68.4v-478c0-37.7-30.6-68.4-68.4-68.4z m-748 554.9c-8.5 0-15.5-6.9-15.5-15.5v-463.9c0-8.5 6.9-15.5 15.5-15.5h736.8c8.6 0 15.5 6.9 15.5 15.5V540.8c0 8.6-6.9 15.5-15.5 15.5H143.6zM660.1 459.5h64v-148.6h-64zM300.2 460.4h64v-148.6h-64zM726.6 564.1H299.2v134c0 37.8 30.6 68.4 68.4 68.4h290.5c37.8 0 68.4-30.6 68.4-68.4v-134z m-353.1 59.1h278.8v70.5c0 7.6-6.2 13.8-13.8 13.8H387.3c-7.6 0-13.8-6.2-13.8-13.8v-70.5zM63.3 418.9h897v-64h-897z"  horiz-adv-x="1024" />

    
    <glyph glyph-name="erweima" unicode="&#58891;" d="M527.7 285.1h-32c-8.8 0-16-5.6-16-12.4V49c0-6.9 7.2-12.4 16-12.4h32c8.8 0 16 5.6 16 12.4V272.6c0 6.9-7.1 12.5-16 12.5zM495.8 483.8h32c8.8 0 16 5.6 16 12.4v323c0 6.9-7.2 12.4-16 12.4h-32c-8.8 0-16-5.6-16-12.4v-323c-0.1-6.8 7.2-12.4 16-12.4zM114.2 484.1h248.5c27.4 0 49.7 22.3 49.7 49.7V782.3c0 27.4-22.3 49.7-49.7 49.7H114.2c-27.4 0-49.7-22.3-49.7-49.7v-248.5c0-27.4 22.3-49.7 49.7-49.7zM128 746.4c0 12.2 9.9 22.1 22.1 22.1h176.7c12.2 0 22.1-9.9 22.1-22.1v-176.7c0-12.2-9.9-22.1-22.1-22.1H150.1c-12.2 0-22.1 9.9-22.1 22.1V746.4zM114.2-63.9h248.5c27.4 0 49.7 22.3 49.7 49.7V234.3c0 27.4-22.3 49.7-49.7 49.7H114.2c-27.4 0-49.7-22.3-49.7-49.7v-248.5c0-27.4 22.3-49.7 49.7-49.7zM128 198.4c0 12.2 9.9 22.1 22.1 22.1h176.7c12.2 0 22.1-9.9 22.1-22.1v-176.7c0-12.2-9.9-22.1-22.1-22.1H150.1c-12.2 0-22.1 9.9-22.1 22.1V198.4zM676.9 210.5h-32.1c-8.8 0-16-5.5-16-12.4v-248.5c0-6.9 7.2-12.4 16-12.4h32.1c8.8 0 15.9 5.6 15.9 12.4V198.1c0 6.9-7.1 12.4-15.9 12.4zM946.5 416.5H76.9c-6.8 0-12.4-7.2-12.4-16v-32c0-8.8 5.6-16 12.4-16h869.6c6.9 0 12.5 7.2 12.5 16v32c0 8.8-5.6 16-12.5 16zM801 210.5h-31.9c-8.9 0-16-5.5-16-12.4v-248.5c0-6.9 7.1-12.4 16-12.4H801c8.9 0 16.1 5.6 16.1 12.4V198.1c0 6.9-7.2 12.4-16.1 12.4zM925.3 285.1h-31.9c-8.9 0-16.1-5.6-16.1-12.4v-323c0-6.9 7.2-12.4 16.1-12.4h31.9c8.9 0 16 5.6 16 12.4v323c0 6.8-7.1 12.4-16 12.4zM661.8 484.1h248.5c27.4 0 49.7 22.3 49.7 49.7V782.3c0 27.4-22.3 49.7-49.7 49.7H661.8c-27.4 0-49.7-22.3-49.7-49.7v-248.5c0-27.4 22.3-49.7 49.7-49.7z m13.8 262.3c0 12.2 9.9 22.1 22.1 22.1h176.7c12.2 0 22.1-9.9 22.1-22.1v-176.7c0-12.2-9.9-22.1-22.1-22.1H697.7c-12.2 0-22.1 9.9-22.1 22.1V746.4z"  horiz-adv-x="1024" />

    
    <glyph glyph-name="lianxiren" unicode="&#58892;" d="M832 832H256c-70.7 0-128-57.3-128-128v-64H96c-17.7 0-32-14.3-32-32s14.3-32 32-32h32v-160H96c-17.7 0-32-14.3-32-32s14.3-32 32-32h32v-160H96c-17.7 0-32-14.3-32-32s14.3-32 32-32h32v-64c0-70.7 57.3-128 128-128h576c70.7 0 128 57.3 128 128V704c0 70.7-57.3 128-128 128z m64-768c0-35.3-28.7-64-64-64H256c-35.3 0-64 28.7-64 64v64h32c17.7 0 32 14.3 32 32s-14.3 32-32 32h-32V352h32c17.7 0 32 14.3 32 32s-14.3 32-32 32h-32V576h32c17.7 0 32 14.3 32 32s-14.3 32-32 32h-32v64c0 35.3 28.7 64 64 64h576c35.3 0 64-28.7 64-64v-640z m0 0M544 320c-106 0-192-86-192-192h64c0 70.7 57.3 128 128 128s128-57.3 128-128h64c0 106-86 192-192 192z m0 64c45.7 0 88 24.4 110.9 64 22.9 39.6 22.8 88.4 0 128-22.9 39.6-65.2 64-110.9 64-70.7 0-128-57.4-128-128.1 0-70.6 57.3-127.9 128-127.9z m0 191.5c35.1 0 63.5-28.4 63.5-63.5s-28.4-63.5-63.5-63.5-63.5 28.4-63.5 63.5 28.4 63.5 63.5 63.5z m0 0"  horiz-adv-x="1024" />

    
    <glyph glyph-name="fuwuqi" unicode="&#58893;" d="M105.3 831.4h813.5c22.5 0 40.7-18.2 40.7-40.7V628c0-22.5-18.2-40.7-40.7-40.7H105.3c-22.5 0-40.7 18.2-40.7 40.7V790.7c0 22.5 18.2 40.7 40.7 40.7z m0-325.4h813.5c22.5 0 40.7-18.2 40.7-40.7v-162.7c0-22.5-18.2-40.7-40.7-40.7H105.3c-22.5 0-40.7 18.2-40.7 40.7V465.3c0 22.5 18.2 40.7 40.7 40.7z m0-325.4h813.5c22.5 0 40.7-18.2 40.7-40.7v-162.7c0-22.5-18.2-40.7-40.7-40.7H105.3c-22.5 0-40.7 18.2-40.7 40.7V140c0 22.4 18.2 40.6 40.7 40.6z m22.8 605.6v-153.5h767.7V786.2H128.1z m0-325.4v-153.5h767.7V460.8H128.1z m0-325.4v-153.5h767.7V135.4H128.1zM227.3 342c-15 0-28.9 8-36.4 21s-7.5 29 0 42 21.4 21 36.4 21c23.2 0 42-18.8 42-42s-18.8-42-42-42zM227.3 667.4c-15 0-28.9 8-36.4 21s-7.5 29 0 42 21.4 21 36.4 21c23.2 0 42-18.8 42-42s-18.8-42-42-42z"  horiz-adv-x="1024" />

    
    <glyph glyph-name="gaizhang" unicode="&#58894;" d="M898.2 256.7c-19.2 17-48.4 25.3-89.1 25.3H805v-0.1H703.4c-8.1 0-16 2.9-22.2 8.4-2.4 2.1-4.8 4.3-7 6.7-23.1 23.9-24.5 43.9-24.1 51.5l0.1 5.8v0.1c0.1 1.9 3.6 12.4 13 28.5 3.6 6.2 7.4 12.4 11.4 18.3 8.4 12.7 17.8 25.8 28 38.6 35.2 42.1 54.5 95.7 54.5 150.9 0 129-103.5 234.9-235.7 241.2h-18c-132.8-6.3-236.8-112.3-236.8-241.2 0.1-55.3 19.6-109.2 54.9-151.6l1.7-2.2c9.3-11.8 18.4-24.3 26.9-37.1 10.9-16.7 17.4-29.3 20.7-36.9 1.9-4.2 2.8-8.9 2.8-13.4v-0.6c0.5-7.4-0.8-27-22.8-50.5l-1.4-1.4c-2.2-2.2-4.4-4.4-6.7-6.5-6.2-5.5-14.1-8.4-22.2-8.4H215.1c-40.9-0.1-70.1-8.4-89.3-25.3-19.4-17.2-28.8-43.3-28.8-79.7v-155c0-23 9-44.6 25.2-60.9C138.5-55 160-64 182.8-64l658.6 1.4c47.1 0.1 85.6 38.7 85.6 86.1V177.1c-0.1 36.4-9.5 62.5-28.8 79.6zM160.4 19.6v155c0 20 3 26.3 7.3 29.7 6.1 4.7 18.7 6.7 43 6.8h129.6c6.5 0 13 1.9 18.4 5.4 13.9 8.6 26.8 19 38.4 30.7 40.3 41.6 45.1 82.2 44.2 103.5V353c0.4 21.6-10.3 47.2-35.4 85.4-10.5 15.9-22 31.5-34.1 46.5-25.1 30.3-39 68.7-39.1 108.1 0 93.1 75.8 169.8 172.6 174.4h14.6c96.1-4.6 171.4-81.2 171.4-174.2 0-39.5-14-78-39.4-108.4-11.2-14-22.3-29.2-32.8-44.9-4.8-7.2-9.4-14.6-13.7-22.1-16.2-27.7-23-47.2-22.7-64.8v-2c-0.9-21.2 3.9-62 44.1-103.5 11.6-11.8 24.6-22.2 38.4-30.9l0.2-0.1c5.4-3.4 11.8-5.3 18.3-5.3H814c24.8 0 36.7-1.9 42.7-6.8 5.9-4.8 7-13.7 7-29.6v-155.4c0-4.6-1.9-9.1-5.1-12.3-3.2-3.2-7.7-5.1-12.3-5.1l-668.7-1.4h-0.1c-4.6 0-9 1.9-12.3 5.1-3.3 3.3-5.1 7.8-5.1 12.4l0.3 1.5z m236.5 131.6h230.3c17.6 0 31.9-14.3 31.9-32s-14.2-32-31.9-32H396.9c-17.6 0-31.9 14.3-31.9 32s14.3 32 31.9 32z m0 0"  horiz-adv-x="1024" />

    
    <glyph glyph-name="gengduo" unicode="&#58895;" d="M400 416H144c-44 0-80 36-80 80V752c0 44 36 80 80 80h256c44 0 80-36 80-80v-256c0-44-36-80-80-80z m16 144V688c0 44-36 80-80 80H208c-44 0-80-36-80-80v-128c0-44 36-80 80-80h128c44 0 80 36 80 80z m464-144H624c-44 0-80 36-80 80V752c0 44 36 80 80 80h256c44 0 80-36 80-80v-256c0-44-36-80-80-80z m16 144V688c0 44-36 80-80 80H688c-44 0-80-36-80-80v-128c0-44 36-80 80-80h128c44 0 80 36 80 80zM400-64H144c-44 0-80 36-80 80V272c0 44 36 80 80 80h256c44 0 80-36 80-80v-256c0-44-36-80-80-80z m16 144V208c0 44-36 80-80 80H208c-44 0-80-36-80-80v-128c0-44 36-80 80-80h128c44 0 80 36 80 80z m544 59c0-112.1-90.9-203-203-203s-203 90.9-203 203 90.9 203 203 203 203-90.9 203-203zM757 278c-76.8 0-139-62.2-139-139s62.2-139 139-139 139 62.2 139 139-62.2 139-139 139z"  horiz-adv-x="1024" />

    
    <glyph glyph-name="hetong" unicode="&#58896;" d="M836.6 831.1H187.4c-35.3 0-64.1-28.7-64.1-64.1v-766c0-35.3 28.8-64.1 64.1-64.1h649.2c35.3 0 64.1 28.7 64.1 64.1V767c0 35.4-28.8 64.1-64.1 64.1z m0.5-822c0-4.1-3.3-7.4-7.4-7.4H194.3c-4.1 0-7.4 3.3-7.4 7.4V758.9c0 4.1 3.3 7.4 7.4 7.4h635.5c4.1 0 7.4-3.3 7.4-7.4v-749.8h-0.1zM510.4 331.3c0 17.7-12.7 32-28.3 32H320.6c-15.6 0-28.3-14.3-28.3-32s12.7-32 28.3-32H482c15.7 0 28.4 14.4 28.4 32zM320.6 452.4h382.7c15.6 0 28.3 14.3 28.3 32s-12.7 32-28.3 32H320.6c-15.6 0-28.3-14.3-28.3-32 0.1-17.7 12.7-32 28.3-32zM320.6 599.9h382.7c15.6 0 28.3 14.3 28.3 32s-12.7 32-28.3 32H320.6c-15.6 0-28.3-14.3-28.3-32 0.1-17.7 12.7-32 28.3-32zM804.4 318.6l-116.1-28.3-89.2 79.5-8.9-119.1L487 190.5l110.5-45.3L623 28.4l77.2 91.1 118.9-11.9-62.8 101.6 48.1 109.4zM676.3 178.8l-22.4-26.4-7.3 33.8-32 13.1 29.9 17.4 2.6 34.5 25.8-23 33.6 8.2-13.9-31.6 18.2-29.4-34.5 3.4z"  horiz-adv-x="1024" />

    
    <glyph glyph-name="fenxiang" unicode="&#58897;" d="M512 424c0-123.7-100.3-224-224-224S64 300.3 64 424s100.3 224 224 224 224-100.3 224-224zM288 584c-88.4 0-160-71.6-160-160s71.6-160 160-160 160 71.6 160 160-71.6 160-160 160zM960 694c0-70.7-57.3-128-128-128s-128 57.3-128 128S761.3 822 832 822s128-57.3 128-128z m-128 64c-35.3 0-64-28.7-64-64s28.7-64 64-64 64 28.7 64 64-28.7 64-64 64zM950 106c0-88.4-71.6-160-160-160s-160 71.6-160 160 71.6 160 160 160 160-71.6 160-160z m-160 96c-53 0-96-43-96-96s43-96 96-96 96 43 96 96-43 96-96 96zM732.4 631.4l-271.2-111c-16.3-6.7-35.1 1.2-41.7 17.5-6.7 16.3 1.2 35.1 17.5 41.7l271.2 111c16.3 6.7 35.1-1.2 41.7-17.5 6.7-16.2-1.2-35-17.5-41.7zM657.2 140.2L420.3 252.5c-15.9 7.5-22.7 26.7-15.2 42.6 7.5 15.9 26.7 22.7 42.6 15.2L684.6 198c15.9-7.5 22.7-26.7 15.2-42.6-7.6-15.9-26.7-22.8-42.6-15.2z"  horiz-adv-x="1024" />

    
    <glyph glyph-name="shangchuan" unicode="&#58898;" d="M543.9 770v-569.6c0-17.7-14.3-32-32-32s-32 14.3-32 32V770c0 17.7 14.3 32 32 32 17.6 0 32-14.3 32-32zM892.8-62.7H131c-37.1 0-67.2 30.1-67.2 67.2V306.3c0 18.4 14.3 33.8 32.7 34.4 18.9 0.4 31.5-14.8 31.5-33.6v-268.9c0-18.6 18-37.6 36.6-37.6h694.6c18.6 0 36.6 19 36.6 37.6V306.3c0 18.4 11.3 33.8 29.7 34.4 18.9 0.4 34.5-14.8 34.5-33.6v-302.5c0.1-37.1-30.1-67.3-67.2-67.3zM533.6 751.7l-147-147.1c-12.4-12.4-32.8-12.4-45.3 0-12.4 12.4-12.4 32.8 0 45.3L488.4 797c12.4 12.4 32.8 12.4 45.3 0 12.4-12.5 12.4-32.8-0.1-45.3zM683.9 649.9L536.8 797c-12.4 12.4-32.8 12.4-45.3 0-12.4-12.4-12.4-32.8 0-45.3l147.1-147.1c12.4-12.4 32.8-12.4 45.3 0 12.4 12.5 12.4 32.8 0 45.3z"  horiz-adv-x="1024" />

    
    <glyph glyph-name="hezuo" unicode="&#58899;" d="M960 452.4c0 20.1-7.8 38.8-22 52.9L698.8 744.6c-14.1 14.1-33 22-53 22h-0.1c-20.1 0-38.8-7.8-53-22l-80.8-80.8-80.8 80.8c-14.1 14.2-33 22-53 22h-0.1c-20.1 0-38.8-7.8-53-22L86 505.5c-14.1-14.1-22-33-22-53 0-20.1 7.8-38.8 22-53l124.3-124.3c1.1-4.5 3-8.9 6.5-12.5L456 23.5c14.1-14.1 33-22 53-22h0.1c1 0 1.9 0.6 2.9 0.6s1.9-0.6 2.9-0.6h0.1c20.1 0 38.8 7.8 53 22l239.2 239.2c5.3 5.3 8.8 11.8 12.2 18.3L938 399.6c14.2 13.9 22 32.8 22 52.8z m-832-2.3c0 5.7 2.3 11.1 6.3 15.2l231 231c4.1 4.1 9.5 6.3 15.2 6.3 5.7 0 11.1-2.2 15.2-6.3l78.2-78.2-108-108 24.7-24.8c21.3-21.3 49.5-32.9 79.5-32.9 30.1 0 58.3 11.6 79.5 32.9l28.5 28.5 180.7-180.7c4.1-4.1 6.3-9.5 6.3-15.2 0-1.4-0.5-2.5-0.7-3.8l-37.3-37.3L676 328c-9.9 9.9-26 9.9-36 0-9.9-9.9-9.9-26 0-36l51.1-51.2-32.1-32.2-51.1 51.2c-9.9 9.9-26 9.9-36 0-9.9-9.9-9.9-26 0-36l51.1-51.2-33.2-33.2-51.1 51.2c-9.9 9.9-26 9.9-36 0-9.9-9.9-9.9-26 0-36l51.1-51.2-31.8-31.8c-3.3-3.4-7.6-5.1-12.2-5.7-4.5 0.6-8.9 2.4-12.3 5.7L134.3 434.9c-4.1 4.1-6.3 9.5-6.3 15.2z m762.1-8.9l-79.5-79.5c-3 5-5.5 10.3-9.7 14.5L621.2 556c3.8 9.1 2 19.9-5.5 27.3-9.8 9.8-25.7 9.8-35.6 0l-56.9-56.9c-19.1-19.1-50.5-23-73.5-9.6l150.4 150.4c0.1 0.1 0.2 0.3 0.3 0.5l31.5 31.5c4 4 9.3 6.2 14.9 6.2 5.7 0 11-2.2 15-6.2L890 471.1c4-4 6.2-9.3 6.2-15 0.2-5.5-2-10.8-6.1-14.9z"  horiz-adv-x="1024" />

    
    <glyph glyph-name="huiyi" unicode="&#58900;" d="M913.7 63.1l-105.2 52.6 27.4 39.8c3.2 4.7 4.9 10.2 4.9 15.9v83.2c0 61.5-49.2 109.8-112 109.8s-112-48.2-112-109.8V216h-218v38.5c0 61.5-49.2 109.8-112 109.8s-112-48.2-112-109.8v-83.2c0-5.8 1.8-11.5 5.2-16.2l27.9-39.2L98 63.3c-9.7-4.7-15.9-14.5-15.9-25.3v-52.8c0-15.5 12.5-28 28-28h349c15.5 0 28 12.5 28 28V38c0 10.6-6 20.3-15.5 25.1l-105.2 52.6 27.4 39.8c1 1.4 1.8 2.9 2.5 4.5h222.9c0.8-1.7 1.7-3.3 2.8-4.9l27.9-39.2L540 63.3c-9.7-4.7-15.9-14.5-15.9-25.3v-52.8c0-15.5 12.5-28 28-28h349c15.5 0 28 12.5 28 28V38c0.1 10.6-5.9 20.4-15.4 25.1z m-490.6-34.8v-7.1h-277V28l117.2 56.1c7.1 3.4 12.3 9.7 14.2 17.3 2 7.6 0.5 15.6-4.1 22l-39.7 55.8v70.2c0 28.5 23.2 50.8 52.9 50.8s52.9-22.3 52.9-50.8V179l-38.4-56c-4.4-6.3-5.7-14.2-3.8-21.6 1.9-7.4 7-13.7 13.8-17.1l112-56z m442-7.1h-277V28l117.1 56.1c7.1 3.4 12.3 9.7 14.2 17.3 2 7.6 0.5 15.6-4.1 22l-39.7 55.8v70.2c0 28.5 23.2 50.8 52.9 50.8s52.9-22.3 52.9-50.8V179l-38.3-56c-4.4-6.3-5.7-14.2-3.8-21.6 1.9-7.4 7-13.7 13.8-17.1l112.1-56-0.1-7.1zM297.9 430.5H523c17.7 0 32 14.3 32 32s-14.3 32-32 32H297.9c-17.7 0-32-14.3-32-32s14.3-32 32-32zM895.7 810.8H128.3c-35.8 0-63.8-23.5-63.8-53.4v-544.1c0-29.9 41-53.4 76.8-53.4v56c-3.6 0-6.2 0.8-7.7 1.5l-6 535.7c1.6 0.7 4.2 1.5 7.7 1.5h753.3c3.6 0 6.2-0.8 7.7-1.5v-535.7c-1.6-0.7-4.2-1.5-7.7-1.5v-56c35.8 0 70.8 23.5 70.8 53.4V757.5c0.1 29.9-28 53.3-63.7 53.3zM284.9 576.6h433c17.7 0 32 14.3 32 32s-14.3 32-32 32h-433c-17.7 0-32-14.3-32-32s14.3-32 32-32z"  horiz-adv-x="1024" />

    
    <glyph glyph-name="kuaidi" unicode="&#58901;" d="M960 470.2c0 82.5-66.9 200.3-149.3 200.3H575.6v78.6c0 27.5-22.3 49.8-49.8 49.8h-412c-27.5 0-49.8-22.3-49.8-49.8v-627.3c0-27.5 22.3-55.8 49.8-55.8h81.1c14.4-55.7 65-96.9 125.2-96.9s110.8 41.2 125.2 96.9h165.9c14.4-55.7 65-96.9 125.2-96.9s110.8 41.2 125.2 96.9H960V470.2zM319.4 29.1c-37.9 0-68.7 30.7-68.7 68.7 0 37.9 30.7 68.7 68.7 68.7s68.7-30.7 68.7-68.7c0-37.9-30.7-68.7-68.7-68.7z m192.4 99.7h-65.9c-13.7 56.8-64.8 99-125.7 99-61 0-112.1-42.2-125.8-99h-66.6V736.1h384v-607.3z m224-99.7c-37.9 0-68.7 30.7-68.7 68.7 0 37.9 30.7 68.7 68.7 68.7 37.9 0 68.7-30.7 68.7-68.7-0.1-37.9-30.8-68.7-68.7-68.7z m160.4 99.7h-34c-13.7 56.8-64.8 99-125.7 99-61 0-112.1-42.2-125.8-99h-35.1v480h224.2c58.3 0 79.3-55.7 95.9-96.7H711.1V322h185.1v-193.2z m0 257H768.9v63.6h127.3v-63.6z m0 0"  horiz-adv-x="1024" />

    
    <glyph glyph-name="naozhong" unicode="&#58902;" d="M706.7 390.4H547.8V645.8c0 1.1-0.9 2-2 2h-60.4c-1.1 0-2-0.9-2-2v-317.7c0-1.1 0.9-2 2-2h221.2c1.1 0 2 0.9 2 2v60.4c0.1 1-0.8 1.9-1.9 1.9z m0 0M803.6 61.2c78 76 126.5 182.1 126.5 299.4 0 94.8-31.7 182.3-85.1 252.6 23.6 24 36.8 56 36.8 90.1 0 71-57.7 128.6-128.6 128.6-50.3 0-94.7-28.7-115.8-72.5-39.6 12.5-81.7 19.3-125.5 19.3s-85.8-6.8-125.4-19.3C365.5 803 321.1 832 270.8 832c-71 0-128.6-57.7-128.6-128.6 0-34.2 13.6-66.5 36.8-90.1-53.4-70.2-85.1-157.8-85.1-252.6 0-110.3 42.9-210.7 112.9-285.5l-93-93c-0.8-0.8-0.8-2.1 0-2.8l42.7-42.7c0.8-0.8 2.1-0.8 2.8 0l95 95c71.1-55.8 160.7-89.1 257.8-89.1 90.1 0 173.7 28.6 242 77.3l83.1-83.1c0.8-0.8 2.1-0.8 2.8 0l42.7 42.7c0.8 0.8 0.8 2.1 0 2.8l-79.1 78.9z m-50.4 706.5c35.4 0 64.4-28.8 64.4-64.4 0-15.6-5.6-30.2-15.5-41.8-30.7 29.6-66.1 54.7-104.7 73.9 11.2 19.7 32.3 32.3 55.8 32.3z m-482.4 0c23.7 0 44.6-12.8 55.8-32.2-38.6-19.2-73.9-44.2-104.7-73.9-9.8 11.5-15.5 26.2-15.5 41.8 0 35.5 28.9 64.3 64.4 64.3zM158.2 360.6c0 195.1 158.7 353.8 353.8 353.8 195.1 0 353.8-158.7 353.8-353.8 0-195.1-158.7-353.8-353.8-353.8-195.1 0.1-353.8 158.8-353.8 353.8z m0 0"  horiz-adv-x="1024" />

    
    <glyph glyph-name="paiming" unicode="&#58903;" d="M544 234.7c0-17.7-14.3-32-32-32s-32 14.3-32 32V533.3c0 17.7 14.3 32 32 32s32-14.3 32-32v-298.6zM712 231.5c0-17.7-14.3-32-32-32s-32 14.3-32 32V402.1c0 17.7 14.3 32 32 32s32-14.3 32-32v-170.6zM376 232.5c0-17.7-14.3-32-32-32s-32 14.3-32 32V445.9c0 17.7 14.3 32 32 32s32-14.3 32-32v-213.4zM187.2 776h649.6c68 0 123.2-55.2 123.2-123.2v-537.6c0-68-55.2-123.2-123.2-123.2H187.2C119.2-8 64 47.2 64 115.2V652.8c0 68 55.2 123.2 123.2 123.2z m-3.3-63.9c-31.2 0-56.6-25.3-56.6-56.6v-543.1c0-31.2 25.3-56.6 56.6-56.6h656.2c31.2 0 56.6 25.3 56.6 56.6V655.5c0 31.2-25.3 56.6-56.6 56.6H183.9z"  horiz-adv-x="1024" />

    
    <glyph glyph-name="weizhi" unicode="&#58904;" d="M512-64c-7.6 0-14.7 2.9-20 8.6L246.1 190.4c-70.9 70.9-110.3 165.5-110.3 265.8s39 195 110.3 265.9C317 793 411.6 832 512 832s195-39 265.9-110.3c70.9-70.9 110.3-165.5 110.3-265.8s-39-195-110.3-265.9L532-55.9c-5.3-5.2-12.4-8.1-20-8.1z m0 831.7c-83.5 0-162.4-32.7-221.2-91.5-59.3-59.3-91.9-138.1-91.9-221.7 0-83.5 32.7-162.4 91.5-221.2l221.2-221.2 221.2 221.2c59.3 59.3 91.5 137.7 91.5 221.2s-32.7 162.4-91.5 221.2c-58.9 59.3-137.3 92-220.8 92z m0.5-452.6c-82.3 0-149.3 66.6-149.3 148.9s67.1 148.9 148.9 148.9S661 545.8 661 464c-0.1-81.8-66.2-148.9-148.5-148.9z m-0.1 234.5c-47.5 0-86.1-38.2-86.1-85.6 0-47.5 38.6-85.6 85.6-85.6 47.5 0 85.6 38.6 85.6 85.6 0.6 47.5-38 85.6-85.1 85.6z"  horiz-adv-x="1024" />

    
    <glyph glyph-name="leibie" unicode="&#58905;" d="M512.1 767.3c9.1 0 18.1-2 26.4-5.7l353.3-168.2c1.3-0.4 2.5-1 3.7-1.8-0.9-0.7-2-1.3-3-1.8L538.4 421.7c-16.7-7.6-36-7.6-52.7 0L132.4 589.9c-1.3 0.4-2.5 1-3.7 1.8 0.9 0.7 2 1.3 3 1.8l353.9 168.2c8.4 3.6 17.4 5.6 26.5 5.6m0 63.9c-18.6 0-37-4-53.8-12L105 651.2c-24.6-9.5-40.8-33.2-40.8-59.6s16.2-50 40.8-59.6l353.3-168c34.1-16 73.5-16 107.6 0l353.3 168c24.6 9.5 40.8 33.2 40.8 59.6s-16.2 50-40.8 59.6l-353.3 168c-16.8 7.9-35.2 12-53.8 12z m0-675.6c-24-0.1-47.7 5.3-69.2 16l-360.3 179c-10.6 4.9-17.7 15.1-18.5 26.7-0.8 11.6 4.7 22.8 14.5 29.1 9.8 6.3 22.2 6.9 32.5 1.4l360.3-178.9c25.7-12.6 55.8-12.6 81.5 0l360.3 178.9c15.7 7.2 34.3 0.6 41.9-14.8 7.7-15.5 1.7-34.2-13.5-42.4L581.2 171.7c-21.5-10.6-45.1-16.2-69.1-16.1z m0-218.8c-24 0-47.6 5.4-69.2 16l-360.3 179c-10.6 4.9-17.7 15.1-18.5 26.7-0.8 11.6 4.7 22.8 14.5 29.1 9.8 6.3 22.2 6.9 32.5 1.4l360.3-178.9c25.7-12.6 55.8-12.6 81.5 0L913.1 189c15.7 7.2 34.3 0.6 41.9-14.8 7.7-15.5 1.7-34.2-13.5-42.4l-360.3-179c-21.5-10.6-45.2-16-69.1-16z m0 0"  horiz-adv-x="1024" />

    
    <glyph glyph-name="loudou" unicode="&#58906;" d="M652.5 384.5l235.7 322.2c25.5 34.9 18 83.8-16.9 109.4-13.3 9.9-29.5 15.2-46.1 15.2H198.8c-43.2 0-78.2-35-78.2-78.3 0-16.6 5.3-32.8 15.1-46.3l235.8-322.2v-414.3c0-18.5 15-33.5 33.5-33.5s30.5 15 30.5 33.5V395.5c0 7.1 0.7 14.1-3.5 19.8L189.8 743.4c-1.4 1.9-2.2 7.2-2.2 9.6 0 6.2 5 14.2 11.2 14.2h626.4c2.4 0 4.7-3.8 6.6-5.2 5-3.7 6.1-13.6 2.4-18.6L595 415.3c-4.2-5.8-6.5-12.7-6.5-19.8v-330.7c0-18.5 12-33.5 30.5-33.5s33.5 15 33.5 33.5V384.5z m0 0"  horiz-adv-x="1024" />

    
    <glyph glyph-name="kehu" unicode="&#58907;" d="M492.1 283.4c-8.3 6.6-13.2 14.9-13.2 26.5 0 18.2 14.9 33.1 33.1 33.1 18.2 0 33.1-14.9 33.1-33.1 0-11.6-5-19.9-13.2-26.5l44.7-157.3c3.3-11.6 0-23.2-8.3-31.4L523.6 50c-6.6-6.6-16.6-6.6-23.2 0l-44.7 44.7c-8.3 8.3-11.6 19.9-8.3 31.4l44.7 157.3zM368 417.1c-53 43-87.7 107.6-87.7 182.1 0 127.5 104.3 231.7 231.7 231.7 127.5 0 231.7-104.3 231.7-231.7 0-72.8-34.8-139-87.7-182.1 165.5-48 286.4-200.3 286.4-380.7 0-54.6-44.7-99.3-99.3-99.3H181c-54.6 0-99.3 44.7-99.3 99.3-0.1 180.4 120.8 332.7 286.3 380.7z m144 11.3c92.9 0 169 76 169 169 0 92.9-76.1 169-169 169-93 0-169-76.1-169-169s76.1-169 169-169z m333.5-428.2c18.3 0 33.3 15 33.3 33.4 0 183.4-150.1 333.5-333.5 333.5h-66.7c-183.4 0-333.5-150.1-333.5-333.5 0-18.3 15-33.4 33.4-33.4h667z"  horiz-adv-x="1024" />

    
    <glyph glyph-name="anquan" unicode="&#58908;" d="M888.3 670.6V267c0-45.5-26.4-100.1-61.7-127L588-41.2c-38.8-29.4-98.5-29.5-137.4 0L211.9 140c-35.2 26.7-61.7 81.6-61.7 127V670.6c0 49.1 33.7 98.8 78.8 113.6 4.4 1.7 11.4 4.3 21 7.4 17.2 5.6 37 11.1 59.3 16.3 63.3 14.6 133.8 23.4 209.9 23.4 76 0 146.6-8.8 209.9-23.4 22.3-5.2 42.1-10.7 59.3-16.3 9.7-3.2 16.9-5.7 21.2-7.5 44.9-15.3 78.7-64.7 78.7-113.5z m-674.4 3.3v-408.2c0-24.9 17.1-60.3 35.6-74.4L490.8 8c15-11.4 41.9-11.4 56.9 0L789 191.2c18.6 14.1 35.6 49.3 35.6 74.4V673.9c0 21-16.6 45.1-33.9 50.8l-2.2 0.8c-0.5 0.2-1.9 0.7-4.1 1.5-4.6 1.7-9.2 3.3-13.8 4.8-15.6 5-33.8 10.1-54.4 14.9-59.2 13.7-125.5 21.9-197 21.9s-137.8-8.2-197-21.9c-20.6-4.8-38.8-9.8-54.4-14.9-4.6-1.5-9.3-3.1-13.8-4.8-2.2-0.8-3.5-1.3-4.1-1.5-0.9-0.4-1.7-0.7-2.6-0.9-17-5.5-33.4-29.4-33.4-50.7zM704.8 498L509.7 302.8c-12.4-12.4-32.8-12.4-45.3 0-12.4 12.4-12.4 32.8 0 45.3l195.2 195.2c12.4 12.4 32.8 12.4 45.3 0 12.4-12.5 12.4-32.9-0.1-45.3zM460.5 302.8L353.7 409.6c-12.4 12.4-12.4 32.8 0 45.3 12.4 12.4 32.8 12.4 45.3 0L505.8 348c12.4-12.4 12.4-32.8 0-45.3-12.5-12.4-32.9-12.4-45.3 0.1z"  horiz-adv-x="1024" />

    
    <glyph glyph-name="shouru" unicode="&#58909;" d="M82.4 290.1l1.5-1.8 0.7-0.7 333.7-309c25.2-23.3 57.6-35.6 93.9-35.6 34.1 0 64.2 11 92.2 33.9l1.4 1.3 334.6 310.1 0.5 0.5c12.4 14.7 19.2 33.8 19.2 53.5 0 17.8-5.4 34.7-15.6 48.8-9.9 13.8-23.9 24.1-39.5 29-6.8 2.3-13.9 3.4-21.1 3.4h-60.4c-4.3 0-7.6 3.5-7.6 7.6V727c0 31.9-7.9 55.7-24.2 72.9C775.5 816.8 752.8 825 722.5 825H301.9c-30.1 0-53.4-8.5-69.4-25.3-15.9-16.7-23.8-41.1-23.8-72.6v-295.8c0-4.3-3.5-7.6-7.6-7.6h-62.3c-0.5 0-0.8 0-1.3-0.1l-1.2-0.2c-0.2 0-0.5-0.1-0.6-0.1-19.3-1.5-37.1-10.2-50.4-24.9-13.8-15.2-21.4-35.2-21.4-56.2v-0.2c0.5-19 7-37.5 18.5-51.9z m795.7 64.6c0.9 0 1.8-0.2 2.6-0.6l1.3-0.6h1.2c6.8-2.6 11.5-9.8 11.5-17.5 0-3.7-1-7.2-3-10.3-0.3-0.5-0.7-0.9-1.2-1.4L567.7 26c-0.1-0.1-0.3-0.2-0.5-0.3-22.5-17.9-42.1-20.1-55-20.1-21.9 0-40.4 6.8-54.9 20.2L133.7 324.6c-0.6 0.6-1 1.2-1.4 1.7-1.4 2.3-2.6 5.6-2.6 9.4v2.9c-0.1 14.2 0.9 15.7 5.7 15.9h11.1l1.8 0.1h120.3c4.4 0 7.7 3.5 7.7 7.7V726c0 18.2 3.7 25.7 6.5 28.8 2.9 3.1 10 6.8 27 6.8h404.8c17 0 24.1-3.8 27.1-6.8 3-3.1 6.7-10.9 6.7-28.8v-363.5c0-4.3 3.5-7.7 7.7-7.7l122-0.1zM651.6 462.9c17.6 0 32 14.3 32 32v8.7c0 12.9-10.4 23.2-23.2 23.2h-13.3c-6.8 0-10.9 7.4-7.5 13.1l39.5 66.5c2.3 3.8 2.9 8.5 1.6 13.1-1.6 6.1-6.1 11.6-12.3 15.1l-15.4 8.6c-11.4 6.4-24.6 4.3-30-4.9L559.5 531c-1.6-2.6-4.4-4.2-7.5-4.2h-79.9c-3.1 0-6 1.6-7.5 4.2L401 638.5c-5.3 9.1-18.8 11.4-30 4.9l-15.4-8.6c-6.2-3.5-10.7-9-12.3-15.1-1.3-4.6-0.7-9.3 1.6-13.1l39.5-66.6c3.4-5.9-0.8-13.1-7.5-13.1h-13.3c-12.8 0-23.2-10.5-23.2-23.2v-17.5c0-12.8 10.5-23.2 23.2-23.2h107.8c4.8 0 8.7-3.9 8.7-8.7V396c0-4.8-3.9-8.7-8.7-8.7h-99.1c-17.6 0-32-14.3-32-32 0-17.6 14.3-31.9 32-31.9h99.1c4.8 0 8.7-3.9 8.7-8.7v-114c0-17.6 14.3-31.9 32-31.9h0.1c17.6 0 31.9 14.2 31.9 31.8V314.5c0 4.8 3.9 8.7 8.7 8.7H652c17.6 0 31.9 14.3 31.9 31.8v8.8c0 12.8-10.4 23.2-23.2 23.2H552.5c-4.8 0-8.7 3.9-8.7 8.7v58.4c0 4.8 3.9 8.7 8.7 8.7l99.1 0.1z"  horiz-adv-x="1024" />

    
    <glyph glyph-name="lipin" unicode="&#58910;" d="M881.5 406.4H217.8v-347.2c0-30.9 28.1-59 59-59h470.4c30.9 0 59 28.1 59 59V305.6c0 18.6 12 33.6 30.6 33.6s33.6-15 33.6-33.6v-246.4c0-68-55.2-123.2-123.2-123.2H276.8c-68 0-123.2 55.2-123.2 123.2V406.4h-11.2c-43.3 0-78.5 35.1-78.5 78.4v89.7c0 43.3 35.1 78.4 78.5 78.4h181.4c-8.6 16.8-13.4 35.8-13.4 56 0 68 55.2 123.2 123.2 123.2 41.9 0 79-20.9 101.2-52.9 17.3 12.2 38.4 19.3 61.2 19.3 58.8 0 106.4-47.6 106.4-106.4 0-13.8-2.6-27.1-7.5-39.2h186.6c43.3 0 78.5-35.1 78.5-78.4v-89.7c0-43.3-35.1-78.4-78.5-78.4z m-742.1 66.7h745.3c6.3 0 11.3 5.1 11.3 11.2v90.4c0 6.2-5.1 11.2-11.3 11.2H139.4c-6.3 0-11.3-5.1-11.3-11.2v-90.4c-0.1-6.1 5-11.2 11.3-11.2zM596 649.7c23.4 0 42.3 19 42.3 42.3 0 23.4-19 42.3-42.3 42.3-23.4 0-42.3-19-42.3-42.3v-42.3H596z m-103.2-0.1v59.2c0 32.7-26.5 59.2-59.2 59.2s-59.2-26.5-59.2-59.2 26.5-59.2 59.2-59.2h59.2z"  horiz-adv-x="1024" />

    
    <glyph glyph-name="shenhe" unicode="&#58911;" d="M343.1 0H186.5c-36.7 0-58.5 21.8-58.5 58.5v651c0 36.7 21.8 58.5 58.5 58.5h595c36.7 0 58.5-21.8 58.5-58.5v-81.1c0-15.5 18.5-28 34-28s30 12.5 30 28v81.1C904 777.1 849.1 832 781.5 832h-595C119 832 64 777.1 64 709.5v-651C64-9.1 119-64 186.5-64h156.6c15.5 0 28 14.5 28 30s-12.5 34-28 34zM901.5 322c0-173.4-140.6-314-314-314s-314 140.6-314 314 140.6 314 314 314 314-140.5 314-314z m-314 250c-138.1 0-250-111.9-250-250s111.9-250 250-250 250 111.9 250 250-112 250-250 250zM905.4-54.7L758.3 92.4c-12.4 12.4-12.4 32.8 0 45.3 12.4 12.4 32.8 12.4 45.3 0l147.1-147.1c12.4-12.4 12.4-32.8 0-45.3-12.5-12.4-32.8-12.4-45.3 0z"  horiz-adv-x="1024" />

    
    <glyph glyph-name="wenjian" unicode="&#58912;" d="M241.8 323.1h376.6c18.8 0 34.1 15.3 34.1 34 0 18.8-15.3 34-34.1 34H241.6c-18.7 0-34-15.3-34-34 0.1-18.7 15.4-34 34.2-34z m375.6-92.9H240.8c-18.8 0-34.1-15.3-34.1-34 0-18.8 15.3-34 34.1-34h376.6c18.8 0 34.1 15.3 34.1 34-0.1 18.8-15.3 34-34.1 34zM938.2 613L800.7 772c-17 19.8-41.7 31-67.8 31H146.6c-45.5-0.2-82.6-37.2-82.7-82.7V49c0.2-45.4 37.3-82.5 82.8-82.6l723.8-1.1c49.4 0 89.5 40.2 89.5 89.4V554.6c0 21.5-7.7 42.2-21.8 58.4zM548.1 727l173.8-185.3H576.7c-7.8 0-15.2 3.1-20.7 8.5-5.6 5.6-8.5 12.9-8.5 20.6l0.6 156.2zM158 30.7c-7.8 0-15.2 3.1-20.7 8.5-5.5 5.5-8.5 13-8.5 20.6V708.7c-0.1 7.7 3.1 15.3 8.5 20.8 5.5 5.5 13 8.6 20.8 8.6H481v-178.5c0.1-45.4 37.2-82.5 82.7-82.6h167l0.5-44.4v-372.3c0.1-7.9-3-15.5-8.4-21.1-4.9-4.9-11.5-8-18.5-8.5H647v-0.1l-489 0.1z m736.4 24c0-13.2-10.7-23.9-23.9-23.9h-75.3c1.3 5.9 2.1 12 2.1 18.3V559L630.2 737.5h102.7c7 0 13.5-3.1 18.1-8.3l137.6-159.1c3.7-4.3 5.8-9.8 5.8-15.6v-499.8z"  horiz-adv-x="1024" />

    
    <glyph glyph-name="shouji" unicode="&#58913;" d="M457 75c0-30.3 24.7-55 55-55s55 24.7 55 55c0 19.6-10.5 37.8-27.6 47.6-17.1 9.8-38 9.8-55 0-16.9-9.8-27.4-28-27.4-47.6zM775-64H249c-44 0-80 36-80 80V752c0 44 36 80 80 80h526c44 0 80-36 80-80v-736c0-44-36-80-80-80z m16 144V688c0 44-36 80-80 80H313c-44 0-80-36-80-80v-608c0-44 36-80 80-80h398c44 0 80 36 80 80zM632 191.8H392c-44 0-80 33.8-80 75.2V612.8c0 41.4 36 75.2 80 75.2h240c44 0 80-33.8 80-75.2V267c0-41.4-36-75.2-80-75.2z m16 135.3V552.7c0 41.4-36 75.2-80 75.2H456c-44 0-80-33.8-80-75.2v-225.6c0-41.4 36-75.2 80-75.2h112c44 0 80 33.9 80 75.2z"  horiz-adv-x="1024" />

    
    <glyph glyph-name="yonghu" unicode="&#58914;" d="M670.4 332.7c72.1 48.6 119.5 130.7 119.5 224.1 0 151.2-125.2 274.5-278.8 274.5-153.6 0-277-123.2-277-272.6 0-93.4 47.4-175.5 119.5-224.1C190.5 271.1 76.7 117.9 76.7-63.3h63.8c0 179.3 152.5 340.9 328.9 361.4 1.9 0 49.3 3.7 89.2 0h3.8C735 273.8 881.8 114.2 881.8-63.2h65.7c-2.1 179.3-115.9 334.3-277.1 395.9z m-159.3 16.2c-118.2 0-213.1 93.4-213.1 209.7 0 116.3 94.9 209.7 213.1 209.7 118.2 0 213-93.4 213-209.7 0-116.3-94.9-209.7-213-209.7z"  horiz-adv-x="1024" />

    
    <glyph glyph-name="shoucang" unicode="&#58916;" d="M326.1-40.4c-37.7-23.4-87-11.3-109.9 26.8-10.9 18.1-14.2 39.7-9.4 60.3l48.8 208.1c1.2 5-0.5 10.3-4.2 13.5L91.6 407.5c-33.2 28.9-37 79.4-8.6 113.1 13.7 16.2 33.2 26.4 54.3 28.1L347 565.8c4.6 0.4 8.7 3.4 10.5 8l80.8 197.5c16.8 41.2 63.6 60.8 104.5 43.5 19.5-8.2 34.9-23.9 42.9-43.5l80.8-197.5c1.9-4.6 6-7.6 10.5-8l209.7-17.1c44-3.6 76.5-42.5 73-86.6-1.7-21.1-11.5-40.7-27.4-54.6L772.5 268.3c-3.7-3.2-5.4-8.5-4.2-13.5L817 46.7c10.1-43.1-16.1-86.4-58.9-96.8-20.6-5-42.3-1.5-60.4 9.7L518.2 71.1c-3.9 2.4-8.7 2.4-12.6 0L326.1-40.4z m227.6 168.6l179.5-111.5c2.8-1.7 6-2.2 9.1-1.5 6.7 1.6 11.1 8.9 9.4 16.2l-48.8 208.1c-6.8 29.2 2.9 59.9 25.5 79.5L888 458.2c2.6 2.3 4.3 5.6 4.5 9.2 0.6 7.5-4.7 13.8-11.5 14.4l-209.7 17.1c-29.9 2.4-55.8 21.6-67.3 49.5l-80.8 197.5c-1.3 3.3-3.8 5.8-6.9 7.1-6.2 2.6-13.4-0.4-16.1-7.1l-80.8-197.5c-11.4-27.9-37.3-47.1-67.3-49.5l-209.7-17.1c-3.2-0.3-6.2-1.8-8.4-4.4-4.8-5.7-4.1-14.4 1.4-19.2L295.5 319c22.5-19.6 32.3-50.3 25.5-79.5l-48.8-208.1c-0.8-3.6-0.3-7.3 1.6-10.4 3.6-6.1 11.1-7.9 16.9-4.3l179.5 111.5c25.5 15.9 57.9 15.9 83.5 0z"  horiz-adv-x="1024" />

    
    <glyph glyph-name="tuichu" unicode="&#58918;" d="M201.6 700.8c12.8 12.8 32 12.8 44.8 0 12.8-12.8 12.8-32 0-44.8-73.6-70.4-115.2-169.6-115.2-272 0-211.2 172.8-384 384-384s384 172.8 384 384c0 108.8-44.8 211.2-124.8 281.6-12.8 12.8-12.8 32-3.2 44.8 12.8 12.8 32 12.8 44.8 3.2C908.8 630.4 960 512 960 384c0-246.4-201.6-448-448-448S64 137.6 64 384c6.4 121.6 54.4 233.6 137.6 316.8zM518.4 832c19.2 0 32-12.8 32-32v-384c0-19.2-12.8-32-32-32s-32 12.8-32 32V800c0 19.2 12.8 32 32 32z m0 0"  horiz-adv-x="1024" />

    
    <glyph glyph-name="shezhi" unicode="&#58919;" d="M950.4 346.8L763.6 8.1c-13.4-24.2-38.7-39.3-66.1-39.3h-371c-27.5 0-52.8 15-66.1 39.3L73.6 346.8c-12.8 23.1-12.8 51.3 0 74.4l186.8 338.7c13.4 24.2 38.7 39.3 66.1 39.3h370.9c27.5 0 52.8-15 66.1-39.3l186.8-338.7c12.8-23.1 12.8-51.3 0.1-74.4z m-54.9 31.8c1.8 3.3 1.8 7.4 0 10.7l-187.7 341c-1.9 3.5-5.5 5.6-9.5 5.6H325.6c-3.9 0-7.6-2.2-9.5-5.6L128.5 389.4c-1.8-3.3-1.8-7.4 0-10.7l187.7-340.9c1.9-3.5 5.5-5.6 9.5-5.6h372.7c3.9 0 7.6 2.2 9.5 5.6l187.6 340.8zM512 209.2c-96.5 0-174.8 78.3-174.8 174.8 0 96.5 78.3 174.8 174.8 174.8 96.5 0 174.8-78.3 174.8-174.8 0-96.5-78.3-174.8-174.8-174.8z m0 63.9c61.3 0 110.9 49.7 110.9 110.9 0 61.3-49.7 110.9-110.9 110.9-61.3 0-110.9-49.7-110.9-110.9 0-61.3 49.6-110.9 110.9-110.9z"  horiz-adv-x="1024" />

    
    <glyph glyph-name="yulan" unicode="&#58920;" d="M928 768H698c-17.6 0-32 14.4-32 32s14.4 32 32 32h230c17.6 0 32-14.4 32-32s-14.4-32-32-32zM896 570V800c0 17.6 14.4 32 32 32s32-14.4 32-32v-230c0-17.6-14.4-32-32-32s-32 14.4-32 32zM96 768h230c17.6 0 32 14.4 32 32s-14.4 32-32 32H96c-17.6 0-32-14.4-32-32s14.4-32 32-32zM128 570V800c0 17.6-14.4 32-32 32S64 817.6 64 800v-230c0-17.6 14.4-32 32-32s32 14.4 32 32zM96 0h230c17.6 0 32-14.4 32-32s-14.4-32-32-32H96c-17.6 0-32 14.4-32 32s14.4 32 32 32zM128 198v-230c0-17.6-14.4-32-32-32s-32 14.4-32 32V198c0 17.6 14.4 32 32 32s32-14.4 32-32zM928 0H698c-17.6 0-32-14.4-32-32s14.4-32 32-32h230c17.6 0 32 14.4 32 32s-14.4 32-32 32zM896 198v-230c0-17.6 14.4-32 32-32s32 14.4 32 32V198c0 17.6-14.4 32-32 32s-32-14.4-32-32zM768.1 384c0-141.5-114.7-256.1-256.1-256.1S255.9 242.5 255.9 384 370.5 640.1 512 640.1 768.1 525.5 768.1 384zM516 571.2c-106.2 0-192.2-86.1-192.2-192.2s86-192.2 192.2-192.2 192.2 86 192.2 192.2-86 192.2-192.2 192.2zM768.4 128.7c-12.4-12.4-32.8-12.4-45.3 0l-53.7 53.7c-12.4 12.4-12.4 32.8 0 45.3 12.4 12.4 32.8 12.4 45.3 0l53.7-53.7c12.4-12.5 12.4-32.8 0-45.3z"  horiz-adv-x="1024" />

    
    <glyph glyph-name="zichan" unicode="&#58921;" d="M653.7 440c17.8 0 32.4 14.4 32.4 32.4v8.8c0 13-10.5 23.5-23.5 23.5h-13.5c-6.9 0-11.1 7.5-7.6 13.3l40 67.4c2.3 3.8 2.9 8.6 1.6 13.3-1.6 6.2-6.2 11.8-12.5 15.2l-15.6 8.7c-11.5 6.5-24.9 4.3-30.4-5l-64.5-108.7c-1.6-2.7-4.4-4.3-7.6-4.3h-80.9c-3.1 0-6.1 1.6-7.6 4.3l-64.5 108.7c-5.4 9.2-19 11.5-30.4 5l-15.6-8.7c-6.3-3.5-10.8-9.1-12.5-15.2-1.3-4.7-0.7-9.4 1.6-13.3l40-67.5c3.5-5.9-0.8-13.3-7.6-13.3h-13.5c-12.9 0-23.5-10.6-23.5-23.5v-17.6c0-12.9 10.6-23.5 23.5-23.5h109.3c4.9 0 8.9-4 8.9-8.8v-59.1c0-4.9-4-8.8-8.9-8.8H370.3c-17.8 0-32.4-14.4-32.4-32.4 0-17.8 14.5-32.4 32.4-32.4h100.4c4.9 0 8.9-4 8.9-8.8v-115.6c0-17.8 14.5-32.4 32.4-32.4h0.1c17.8 0 32.3 14.4 32.3 32.2V289.5c0 4.9 4 8.8 8.9 8.8h100.4c17.8 0 32.3 14.4 32.3 32.2v8.8c0 12.9-10.5 23.5-23.5 23.5H553.3c-4.9 0-8.9 4-8.9 8.8v59.1c0 4.9 4 8.8 8.9 8.8h100.4v0.5zM960 384c0-247.4-200.6-448-448-448S64 136.6 64 384 264.6 832 512 832s448-200.6 448-448zM512 768c-212.1 0-384-171.9-384-384s171.9-384 384-384 384 171.9 384 384-171.9 384-384 384z"  horiz-adv-x="1024" />

    
    <glyph glyph-name="xiazai" unicode="&#58922;" d="M106.8 787.9c27.6 27.6 64.3 42.8 103.5 42.9h536.8c19.6 0 35.7-15.9 35.8-35.6 0-9.5-3.7-9.5-10.5-16.3-6.8-6.8-15.7-10.5-25.3-10.5H210.4c-41.4 0-81.1-42.6-81.1-84v-536c0-19.7-11.1-35.6-30.8-35.7-19.7 0-34.7 16.1-34.7 35.7v536c0.1 39.1 15.4 75.9 43 103.5zM206.3 560v-490.1c0.1-34.8 13.8-67.6 38.3-92.2 24.7-24.7 57.5-38.3 92.3-38.3h491c34.9 0.1 67.7 13.7 92.3 38.3 24.7 24.7 38.3 57.4 38.3 92.2V560c-0.1 34.8-13.8 67.6-38.3 92.2-24.7 24.7-57.5 38.3-92.3 38.4H337.1c-34.9-0.1-67.7-13.7-92.3-38.3-24.8-24.7-38.4-57.5-38.5-92.3z m690.9-490.1c0-32.7-36.6-69.2-69.3-69.2H337.1c-32.6 0.1-67.2 39.7-67.3 72.2V563c0 32.7 34.6 63.2 67.3 63.2H828c32.8 0 69.3-33.5 69.3-66.2l-0.1-490.1zM576.8 124c-17.6 0-32 14.4-32 32V432c0 17.6 14.4 32 32 32s32-14.4 32-32v-276c0-17.6-14.4-32-32-32zM600.4 133.3c-12.4-12.4-32.8-12.4-45.3 0L416.6 271.9c-12.4 12.4-12.4 32.8 0 45.3 12.4 12.4 32.8 12.4 45.3 0l138.6-138.6c12.4-12.5 12.4-32.8-0.1-45.3zM554.8 133.3c-12.4 12.4-12.4 32.8 0 45.3l138.6 138.6c12.4 12.4 32.8 12.4 45.3 0 12.4-12.4 12.4-32.8 0-45.3L600 133.3c-12.4-12.4-32.8-12.4-45.2 0z"  horiz-adv-x="1024" />

    
    <glyph glyph-name="yuyin" unicode="&#58923;" d="M545.6 27.1v-57.5c0-18.6-15-33.6-33.6-33.6s-33.6 15-33.6 33.6v57.5c-194.6 17-347.2 180.4-347.2 379.3v22.4c0 18.6 15 33.6 33.6 33.6s30.6-15 30.6-33.6v-22.4c0-173.2 143.4-316.6 316.6-316.6 173.2 0 316.6 143.4 316.6 316.6v22.4c0 18.6 12 33.6 30.6 33.6s33.6-15 33.6-33.6v-22.4c0-199-152.6-362.3-347.2-379.3zM288 608.1C288 731.8 388.3 832 512 832s224-100.3 224-223.9v-201.8c0-123.7-100.3-223.9-224-223.9S288 282.7 288 406.3V608.1z m65.2 1.3V405c0-87.5 71.1-158.7 158.8-158.7 87.7 0 158.8 71 158.8 158.7V609.4c0 87.5-71.1 158.7-158.8 158.7-87.7-0.1-158.8-71.1-158.8-158.7z"  horiz-adv-x="1024" />

    
    <glyph glyph-name="zhichu" unicode="&#58924;" d="M941.5 477.9l-1.5 1.8-0.7 0.7-333.7 309C580.4 812.7 548 825 511.7 825c-34.1 0-64.2-11-92.2-33.9l-1.4-1.3L83.5 479.7l-0.5-0.5c-12.4-14.7-19.2-33.8-19.2-53.5 0-17.8 5.4-34.7 15.6-48.8 9.9-13.8 23.9-24.1 39.5-29 6.8-2.3 13.9-3.4 21.1-3.4h60.4c4.3 0 7.6-3.5 7.6-7.6V41c0-31.9 7.9-55.7 24.2-72.9 16.2-16.9 38.9-25.1 69.3-25.1h420.6c30.1 0 53.4 8.5 69.4 25.3 15.9 16.7 23.8 41.1 23.8 72.6V336.7c0 4.3 3.5 7.6 7.6 7.6h62.3c0.5 0 0.8 0 1.3 0.1l1.2 0.2c0.2 0 0.5 0.1 0.6 0.1 19.3 1.5 37.1 10.2 50.4 24.9 13.8 15.2 21.4 35.2 21.4 56.2v0.2c-0.5 19-7 37.5-18.6 51.9z m-795.7-64.6c-0.9 0-1.8 0.2-2.6 0.6l-1.3 0.6h-1.2c-6.8 2.6-11.5 9.8-11.5 17.5 0 3.7 1 7.2 3 10.3 0.3 0.5 0.7 0.9 1.2 1.4L456.3 742c0.1 0.1 0.3 0.2 0.5 0.3 22.5 17.9 42.1 20.1 55 20.1 21.9 0 40.4-6.8 54.9-20.2l323.5-298.8c0.6-0.6 1-1.2 1.4-1.7 1.4-2.3 2.6-5.6 2.6-9.4v-2.9c0.1-14.2-0.9-15.7-5.7-15.9h-11.1l-1.8-0.1H755.3c-4.4 0-7.7-3.5-7.7-7.7V42c0-18.2-3.7-25.7-6.5-28.8-2.9-3.1-10-6.8-27-6.8H309.3c-17 0-24.1 3.8-27.1 6.8-3 3.1-6.7 10.9-6.7 28.8V405.5c0 4.3-3.5 7.7-7.7 7.7h-122v0.1zM651.6 382.9c17.6 0 32 14.3 32 32v8.7c0 12.9-10.4 23.2-23.2 23.2h-13.3c-6.8 0-10.9 7.4-7.5 13.1l39.5 66.5c2.3 3.8 2.9 8.5 1.6 13.1-1.6 6.1-6.1 11.6-12.3 15.1l-15.4 8.6c-11.4 6.4-24.6 4.3-30-4.9L559.5 451c-1.6-2.6-4.4-4.2-7.5-4.2h-79.9c-3.1 0-6 1.6-7.5 4.2l-63.7 107.5c-5.3 9.1-18.8 11.4-30 4.9l-15.4-8.6c-6.2-3.5-10.7-9-12.3-15.1-1.3-4.6-0.7-9.3 1.6-13.1l39.5-66.6c3.4-5.9-0.8-13.1-7.5-13.1h-13.3c-12.8 0-23.2-10.5-23.2-23.2v-17.5c0-12.8 10.5-23.2 23.2-23.2h107.8c4.8 0 8.7-3.9 8.7-8.7V316c0-4.8-3.9-8.7-8.7-8.7h-99.1c-17.6 0-32-14.3-32-32 0-17.6 14.3-31.9 32-31.9h99.1c4.8 0 8.7-3.9 8.7-8.7v-114c0-17.6 14.3-31.9 32-31.9h0.1c17.6 0 31.9 14.2 31.9 31.8V234.5c0 4.8 3.9 8.7 8.7 8.7h99.2c17.6 0 31.9 14.3 31.9 31.8v8.8c0 12.8-10.4 23.2-23.2 23.2H552.5c-4.8 0-8.7 3.9-8.7 8.7v58.4c0 4.8 3.9 8.7 8.7 8.7l99.1 0.1z"  horiz-adv-x="1024" />

    
    <glyph glyph-name="shezhi1" unicode="&#58925;" d="M904.5 310.9l-40.6 23.5c4.7 33.1 4.7 66.7 0 99.8l40.6 23.5c36.6 21.3 49.2 68.1 28.1 104.9l-56 97c-13.8 23.8-39.2 38.4-66.7 38.3-13.4 0-26.6-3.5-38.2-10.2L731 664.2c-26.3 20.6-55.4 37.4-86.4 49.9v40.5c-0.1 42.3-34.4 76.6-76.8 76.8h-112c-42.3-0.1-76.7-34.4-76.8-76.8v-40.5c-31-12.5-60.1-29.3-86.4-49.9L252 687.6c-11.6 6.7-24.8 10.2-38.2 10.2-27.5 0.1-52.9-14.6-66.7-38.3l-56-97c-21.1-36.7-8.5-83.6 28.1-104.9l40.6-23.5c-4.7-33.1-4.7-66.7 0-99.8l-40.6-23.5C82.6 289.6 70 242.8 91.1 206l56-97c13.8-23.8 39.2-38.4 66.7-38.3 13.4 0 26.6 3.5 38.2 10.2l40.7 23.5c26.3-20.6 55.4-37.5 86.4-49.9V14c0.1-42.4 34.4-76.7 76.8-76.8h112c42.4 0.1 76.7 34.4 76.8 76.8v40.5c31 12.5 60.1 29.3 86.4 49.9l40.6-23.5c11.6-6.7 24.8-10.2 38.2-10.2 27.5-0.1 52.9 14.6 66.7 38.3l56 97c21 36.8 8.5 83.6-28.1 104.9z m-26.7-73.2l-56-97c-2.5-4.2-7.1-6.7-11.9-6.7-2.3 0-4.6 0.6-6.6 1.7l-40.6 23.5-37 21.4-33.7-26.5c-21.6-17-45.5-30.8-71-41.1l-39.6-15.9v-83.2c-0.1-7.4-6.1-13.4-13.5-13.5h-112c-7.4 0.1-13.5 6.1-13.5 13.5v83.2L402.7 113c-25.5 10.3-49.4 24.1-71 41L298 180.5l-37-21.4-40.7-23.5c-7.2-3.1-15.6 0-18.5 5l-56 97c-3.6 6.5-1.4 14.7 4.9 18.5l40.6 23.5 36.9 21.3-5.9 42.3c-3.9 27.3-3.9 54.9 0 82.2l5.9 42.2-36.7 21.4-40.7 23.4c-6.4 3.8-8.6 12-4.9 18.5l56 97c2.5 4.2 7 6.8 11.9 6.7 2.3 0 4.6-0.6 6.6-1.8l40.7-23.5 37-21.4 33.6 26.4c21.6 17 45.5 30.8 71 41.1l39.6 16v83.2c0.1 7.4 6.1 13.4 13.5 13.5h112c7.4-0.1 13.4-6.1 13.5-13.5v-83.2l39.6-16c25.5-10.3 49.4-24.1 71-41.1l33.6-26.4 37 21.4 40.6 23.5c2 1.2 4.2 1.8 6.6 1.8 4.9 0 9.4-2.5 11.9-6.7l56-97c3.6-6.5 1.4-14.7-5-18.5L832 488.9l-36.9-21.3 5.9-42.2c3.9-27.3 3.9-54.9 0-82.2l-5.9-42.2 36.9-21.3 40.6-23.5c6.6-3.9 8.8-12.1 5.2-18.5zM511.8 571.5c-108.3 0-196-87.8-196-196.1s87.8-196 196-196c108.3 0 196 87.7 196.1 196 0 52-20.6 101.9-57.4 138.7-36.8 36.8-86.7 57.4-138.7 57.4z m0-328.9c-73.3 0-132.8 59.5-132.7 132.8 0 73.3 59.5 132.8 132.8 132.8s132.8-59.5 132.8-132.8c-0.1-73.4-59.6-132.8-132.9-132.8z"  horiz-adv-x="1024" />

    
    <glyph glyph-name="jieyue" unicode="&#58926;" d="M512 483c-60.3 0-117-23.5-159.5-66.1-42.6-42.6-66.1-99.2-66.1-159.5s23.5-116.9 66.1-159.5c42.6-42.6 99.2-66.1 159.5-66.1s116.9 23.5 159.5 66.1c42.6 42.6 66.1 99.2 66.1 159.5s-23.5 116.9-66.1 159.5C628.9 459.5 572.3 483 512 483z m114.6-340.4c-63.2-63.2-166.1-63.2-229.3 0-63.2 63.2-63.2 166.1 0 229.3 30.6 30.6 71.2 47.4 114.6 47.4 43.4 0 84-16.8 114.6-47.4 30.6-30.6 47.4-71.2 47.4-114.6 0.2-43.5-16.7-84.2-47.3-114.7zM734.7 832H289.4c-65.4 0-118.6-53.2-118.6-118.6v-658.8c0-65.4 53.2-118.6 118.6-118.6h445.1c65.4 0 118.6 53.2 118.6 118.6V713.4C853.3 778.8 800 832 734.7 832z m53.7-795.3c0-23.1-18.7-41.7-41.7-41.7H277.4c-23.1 0-41.7 18.7-41.7 41.7V731.3c0 23.1 18.7 41.7 41.7 41.7h469.2c23.1 0 41.7-18.7 41.7-41.7v-694.6zM343.8 665.2h64V541h-64zM480 623.8h64v-87.2h-64zM616.2 590.6h64v-57.3h-64zM597.6 225H426.4c-17.6 0-32 14.4-32 32s14.4 32 32 32h171.3c17.6 0 32-14.4 32-32-0.1-17.6-14.5-32-32.1-32zM480 171.4V342.6c0 17.6 14.4 32 32 32s32-14.4 32-32v-171.3c0-17.6-14.4-32-32-32-17.6 0.1-32 14.5-32 32.1z"  horiz-adv-x="1024" />

    
    <glyph glyph-name="rili" unicode="&#58927;" d="M287.8 462.8c0 17.7 14.4 32 32.3 32h383.7c17.8 0 32.3-14.2 32.3-32 0-17.7-14.4-32-32.3-32H320.1c-17.8 0-32.3 14.2-32.3 32zM287.8 263.5c0 17.7 14.4 32 32.3 32h383.7c17.8 0 32.3-14.2 32.3-32 0-17.7-14.4-32-32.3-32H320.1c-17.8 0-32.3 14.3-32.3 32zM373.8 725.3h275.4v-68.9H373.8zM787.4 656.4h69.1c18.7 0 40.3-16 40.3-36.5l-1-555.3c0-20.3-20.6-42.5-39.6-41.5H167.9c-16.4-5.6-36.7 16-40.6 41.5V620c0 20.3 21.5 36.5 40.8 36.5h70.2v68.8H168c-57.6 0-103.6-47.3-103.6-105.2v-555.4c0-58 46.1-105.2 103.5-105.2h688.3c57.4 0 103.5 47.3 103.5 105.2V620c0 57.9-45.9 105.2-103.1 105.2h-69.1l-0.1-68.8zM307.2 608.3c-17.6 0-32 14.4-32 32v136c0 17.6 14.4 32 32 32s32-14.4 32-32v-136c0-17.6-14.4-32-32-32zM736.1 608.6c-17.6 0-32 14.4-32 32v136c0 17.6 14.4 32 32 32s32-14.4 32-32v-136c0-17.6-14.4-32-32-32z"  horiz-adv-x="1024" />

    
    <glyph glyph-name="chucha" unicode="&#58928;" d="M379.4-59.7h-1.2c-14.5 1.3-24.8 7-32 16.6l-111.7 149L85.6 217.5c-8.5 5.2-15.1 16.1-16.5 29-1.2 11.1 2.5 22.4 10.6 31.8l58.7 59.4c7.7 7.6 18.3 11.9 29.5 11.9 2.7 0 7 0 11.8-1.7l103.1-28.2 125.9 125.9L129 599.2c-11 6.1-18.7 16.8-21.2 29.4-1.7 14.4 2.8 27.5 11.4 36.1l76.9 76.9c12.2 10.7 27.1 14.1 39.9 10.3l386.4-92.4 87.4 87.4c46.9 46.9 114.4 79.6 164.2 79.6 24.4 0 44.8-7.6 59.2-21.9 24-24 28.5-63.6 12.5-111.4-13.1-39.2-39.3-81.1-70.2-111.9l-88.1-88.1 93.4-406.3c3.8-15.1-2.1-31.7-14.9-42l-77.4-58.1c-6.2-5-15.1-8-24.6-8-1.8 0-5.4 0-10 1.4-12.3 3-22.1 11-26.9 21.9L574.3 280 448.4 154.1l28.5-104.2c3.7-13.7 0.3-28-9.6-39.1l-58.6-58.6c-7.5-7.6-18.2-11.9-29.3-11.9zM128.1 255.5l148.1-112.1 108.1-144.1 52.4 52.4-33.6 123 179 179 174.1-317.1 70.1 52.6-95.1 413.6 101.7 101.7c25.4 25.4 46.9 59.6 57.5 91.5 9.7 29.2 9.1 53.2-1.8 64.1-5.8 5.8-14.9 8.7-27.1 8.7-37.1 0-91.2-27.1-128.5-64.4L631.9 603.2l-396.1 94.7-70.5-70.5 316.9-173.9-179-179-122.8 33.6-52.3-52.6z m251.2-318.8h-1.6c-15.3 1.4-26.8 7.4-34.9 18.2L231.5 103.4 83.2 214.6c-9.7 6-16.8 18.3-18.3 32-1.4 12.3 2.8 24.7 11.6 34.9l0.2 0.2 58.7 59.4c8.4 8.4 20.2 13.2 32.4 13.2 2.9 0 7.7 0 13-1.9L281.4 325l120.3 120.3L127 596.1c-12 6.7-20.5 18.4-23.3 32.2l-0.1 0.3c-1.8 15.3 2.8 29.7 12.6 39.5l77.1 77.1c9.4 8.3 20.8 12.9 32.2 12.9 3.9 0 7.8-0.6 11.5-1.6l384-91.8 85.8 85.8C754.4 798.1 823.1 831.3 874 831.3c25.5 0 46.9-8 62.1-23.2 25.2-25.2 30-66.3 13.5-115.7-13.3-39.8-39.9-82.2-71.2-113.6L792 492.4l92.9-404.1c4.2-16.7-2.3-34.8-16.4-46.2l-0.1-0.1-77.4-58c-7-5.7-16.9-8.9-27.2-8.9-1.9 0-5.9 0-11.1 1.5-13.4 3.3-24.2 12.1-29.6 24l-150 272.9L453 153.4l27.9-101.9c4.1-15.1 0.3-30.8-10.5-42.9l-0.2-0.2-58.6-58.6c-8.3-8.3-20-13.1-32.3-13.1z m-1 8.3h1c10 0 19.7 3.9 26.4 10.6l58.5 58.5c8.8 10 12 22.8 8.6 35.1l-29.1 106.6 131.5 131.5 155.5-283.1c4.3-9.7 13.1-16.9 24.1-19.5l0.2-0.1c4-1.2 7.1-1.2 8.8-1.2 8.4 0 16.4 2.6 22 7.1l0.1 0.1 77.4 58c11.6 9.3 16.8 24.1 13.5 37.7L782.9 495l89.8 89.8c30.5 30.5 56.3 71.7 69.2 110.3 15.4 46.3 11.3 84.3-11.5 107.2-13.6 13.6-33 20.7-56.2 20.7-48.8 0-115.1-32.2-161.3-78.4l-89.1-89.1-388.9 93c-3 0.9-6.1 1.3-9.3 1.3-9.3 0-18.7-3.8-26.6-10.7l-76.8-76.8c-8-7.9-11.7-19.8-10.3-32.5 2.3-11.3 9.3-20.9 19.1-26.4l284.4-156.2-131.5-131.5-105.7 28.9c-4.1 1.5-7.9 1.5-10.4 1.5-10 0-19.7-3.9-26.5-10.7L82.7 276c-7.2-8.5-10.6-18.6-9.5-28.5 1.2-11.1 7-21.3 14.5-25.9l0.3-0.2 149.4-112.1 112-149.4c6.7-8.8 16.1-13.7 28.9-14.9z m1 34.7L264.8 132.3 108 250.9l59.2 59.6 127.3-34.8 179.8 179.8-328.2 180.2 78.5 78.6 410.3-98.1L738 719.4c39.4 39.4 96.6 67.9 136 67.9 13.8 0 24.2-3.5 31-10.3 12.4-12.4 13.5-38.8 2.9-70.6-11.2-33.6-33.8-69.6-60.6-96.4L743.7 506.3l98.6-428.8-78.6-59-180 327.8-179.8-179.9L438.7 39l-59.4-59.3zM120.6 251.8l150.1-113.6 0.4-0.5 109.1-145.5 49.2 49.2-34.8 127.4 191 191 180.7-329.1 66.7 50-98.4 428 107 107c25.9 25.9 47.8 60.7 58.6 93.1 9.4 28.3 9.1 52.2-0.9 62.2-5.2 5.2-13.6 7.8-25.1 7.8-37.5 0-92.2-27.6-130.2-65.5L637.4 607l-410.2 98.1-67.4-67.4L488 457.5l-191-191-127.2 34.8-49.2-49.5z m0 0"  horiz-adv-x="1024" />

    
    <glyph glyph-name="zhuye" unicode="&#58929;" d="M948.3 431.3L536 790c-11.9 11-30.1 11.3-42.4 0.8L76.9 432.5c-8.1-6.4-13-16.4-13-27 0-18.7 14.6-33.8 32.6-33.8h87.8v-276.2c0-33.4 12.6-64.8 35.4-88.4 22.8-23.6 53.1-36.7 85.2-36.7h269.5c27.5 0 53.3 11.1 72.7 31.3 19.5 20.2 30.2 47.1 30.2 75.5V308.9c0 24.8-9.4 48.2-26.3 65.8-17 17.6-39.5 27.3-63.5 27.3H436.9c-23.9 0-46.4-9.7-63.5-27.3-17-17.6-26.3-41-26.3-65.8v-146.3c0-18.7 14.6-33.8 32.6-33.8s28.6 15.1 28.6 33.8V308.9c0 6.8 2.6 17.2 7.3 22 4.7 4.9 14.8 7.6 21.4 7.6h154.6c6.6 0 12.7-2.7 17.4-7.6 4.7-4.9 7.3-15.2 7.3-22V77c0-10.5-8-24.3-15.1-31.8-7.2-7.5-16.7-11.6-26.7-11.6H304.8c-14.8 0-28.7 6-39.2 16.8-10.5 10.9-20.3 29.4-20.3 44.7V405.5c0 18.6-14.6 33.8-32.6 33.8h-30l331.5 285.5 327.7-285.5h-30.8c-18 0-32.6-15.1-32.6-33.8v-355.7c0-3.1-0.3-9.2-2.4-11.4-2.2-2.3-6-4.5-9-4.5l-11.1-0.9c-17.9 0-32.3-11.9-32.3-30.6s14.6-32.1 32.6-32.1h6.8c20.4 0 39.6 8.3 54.1 23.3s22.5 35 22.5 56.2V371.7h93.9v0.6c7.3 1.4 13.9 5.5 18.7 11.4 11.6 14.3 9.7 35.7-4 47.6z"  horiz-adv-x="1024" />

    
    <glyph glyph-name="sousuo" unicode="&#58930;" d="M912.8 401.9c0-227.5-184.5-412-412-412s-412 184.5-412 412 184.5 412 412 412 412-184.4 412-412z m-412 347.8c-192.2 0-348-155.7-348-347.8s155.8-347.8 348-347.8 348 155.7 348 347.8-155.8 347.8-348 347.8zM925.9-36.6c-12.4-12.4-32.8-12.4-45.3 0L742 102c-12.4 12.4-12.4 32.8 0 45.3 12.4 12.4 32.8 12.4 45.3 0l138.6-138.6c12.4-12.5 12.4-32.8 0-45.3z"  horiz-adv-x="1024" />

    
    <glyph glyph-name="fukuan" unicode="&#58931;" d="M884.6 779.1H391c-41.3 0-75-30.5-75-68l0.3-100.1C244.9 542.6 115.2 395.6 97 380.2c-33.1-28.1-33.2-57.7-32.9-63.4v-231.2c0-0.7-0.1-1.4-0.1-2.1v-58.7c0-19.2 15.6-34.9 34.9-34.9 19.2 0 34.9 15.6 34.9 34.9V286.9c0 26.6 19.1 42.6 21.3 44.2 0.4 0.3 0.9 0.7 1.1 1l148.4 172.1 0.1 0.1c3.4 3.1 7.8 3.9 12.1 2.3l0.6-187.4-66.2-55.6-0.7-0.6-0.6-0.8c-6.8-9.3-15.5-31.2 0.2-47.3s36.4-8.9 45.2-2.8l0.3 0.2 161.9 136.1c0.4 0.4 0.9 0.8 1.3 1.2 4.6 4.6 10.6 6.9 17.8 6.9 13-0.1 29-8.1 40.9-20.4 15.9-16.4 16-43 0.1-59.3L272.3 50.1l-0.1-0.1c-0.2-0.2-6.3-6.2-9.7-15-3.3-8.7-4.7-21.8 7.6-34.5 6.8-7 14.6-10.5 23.2-10.5 10.4 0 19.6 5.2 24.9 10.2l15.3 14.2C347.3-0.5 368-10 391-10h493.6c41.3 0 75 30.5 75 68V711.1c0 37.5-33.6 68-75 68zM385.7 62.6L566 229.1l0.2 0.2c41.9 43.1 41.9 113-0.1 156-24.2 24.8-57.5 39.7-89.2 39.8h-0.4c-25 0-47.2-9-64.1-26.1-0.1-0.1-0.2-0.2-0.4-0.3l-31.4-26.4-0.2 313.9c0 21.6 7.5 28.1 32.3 28.1l286 0.1v-661.5l-284.4-0.1c-15.4-0.1-24.2 2.5-28.6 9.8z m507.9 18.3c0-21.6-7.5-28.1-32.3-28.1h-89.5V714.3h91.1c24.8 0 32.3-6.6 32.3-28.1l-1.6-605.3z"  horiz-adv-x="1024" />

    
    <glyph glyph-name="youjian" unicode="&#58932;" d="M793.8 765.3H230.2c-91.2 0-165.8-74.6-165.8-165.8v-431c0-91.2 74.6-165.8 165.8-165.8h563.6c91.2 0 165.8 74.6 165.8 165.8v431c0 91.2-74.6 165.8-165.8 165.8zM225 702h574c37.1 0 69.2-20.3 86.1-49L554.2 384.6c-25.3-20.3-60.8-20.3-84.4 0L138.9 653c16.8 28.7 48.9 49 86.1 49z m570.4-634.4H228.6c-55 0-100 45-100 100v410l300-243.4c25-20 53.3-30 83.3-30s60 10 83.3 30l300 243.4v-410c0.2-55-44.8-100-99.8-100z"  horiz-adv-x="1024" />

    
    <glyph glyph-name="xihuan" unicode="&#58933;" d="M675.6 798.4c173.3 0 284.4-139 284.4-326.1 0-145.2-131.4-305-390.2-484.7-34.7-24.1-81-24.1-115.7 0C195.4 167.3 64 327.2 64 472.3 64 659.4 175.1 798.4 348.4 798.4c62.6 0 105.1-21.9 163.6-71.5 58.5 49.6 101 71.5 163.6 71.5zM677 735c-43.9 0-74.4-16.1-123.8-58.3-2.3-2-15.2-13.1-19-16.3-12.7-10.8-31.5-10.8-44.2 0-3.8 3.2-16.7 14.3-19 16.3-49.4 42.2-80 58.3-123.8 58.3-133.4 0-219-106.7-219-260.7 0-117.4 120.2-263.2 364.6-432.1 11.7-8.1 27.2-8.1 38.9 0C775.8 211.1 896 356.9 896 474.3c0 154-85.6 260.7-219 260.7z"  horiz-adv-x="1024" />

    
    <glyph glyph-name="xiaoxi" unicode="&#58934;" d="M785.2 527.8c6.6 6.5 9.7 15 9.1 23.9-1.3 16.6-16.4 29.6-34.5 29.6H265.1c-10 0-19.5-3.9-26.2-10.5-6.6-6.5-9.7-15-9.1-23.9 1.3-16.6 16.4-29.6 34.5-29.6h494.9c9.8 0 19.3 3.9 26 10.5zM675.1 362.7c6.6 6.5 9.7 15 9.1 23.9-1.3 16.6-16.4 29.6-34.5 29.6H375.2c-10 0-19.5-3.9-26.2-10.5-6.6-6.5-9.7-15-9.1-23.9 1.3-16.6 16.4-29.6 34.5-29.6h274.5c10 0.1 19.5 3.9 26.2 10.5zM869.9 803.9H154.2c-49.6 0-89.8-40.1-89.8-89.7v-550.1c0-49.5 40.2-89.7 89.8-89.7h244.4L507-33.8c1.4-1.4 3.2-2.1 5-2.1 1.9 0 3.6 0.7 5 2.1l108.4 108.3h244.4c49.6 0 89.7 40.1 89.7 89.7V714.3c0.1 49.6-40.1 89.6-89.6 89.6z m-437-666.6l-2.1 2.1H176.5c-27 0-49 22-49 48.9V691.5c0 27 22 48.9 49 48.9h671.4c27 0 49-21.9 49-48.9v-503.2c0-27-22-48.9-49-48.9H593.4L512 58.2l-79.1 79.1z"  horiz-adv-x="1024" />

    
    <glyph glyph-name="xiadan" unicode="&#58917;" d="M608.4 583H287.9c-17.6 0-32 14.4-32 32s14.4 32 32 32h320.5c17.6 0 32-14.4 32-32s-14.4-32-32-32zM608.4 411.7H287.9c-17.6 0-32 14.4-32 32s14.4 32 32 32h320.5c17.6 0 32-14.4 32-32s-14.4-32-32-32zM126.6 768.5h637.8v-316.7h62.4V768.5c0 35.7-26.8 62.4-62.4 62.4H126.6c-35.7 0-62.4-26.8-62.4-62.4v-637.8c0-35.7 26.8-62.4 62.4-62.4h383.6v62.4H126.6V768.5zM952.6 123.3L805.2-42.6c-8.8-13.6-21.9-21.4-37.8-21.4-15.9 0-29.5 7.6-37.8 21.4L582.3 123.3c-8.8 14.2-9.4 31.2-1.1 46 8.2 14.8 22.5 23.5 39.4 23.5h61.9v150c0 23.5 19.1 42.7 42.7 42.7h84.9c23.5 0 42.7-19.1 42.7-42.7v-150h61.9c17 0 31.2-8.8 39.4-23.5 8.3-14.8 7.8-31.8-1.5-46z m-148.5 28.8V317.8h-73.5v-165.5h-92.2l129-147.4 128.8 147.2h-92.1z"  horiz-adv-x="1024" />

    
    <glyph glyph-name="saoyisao" unicode="&#58915;" d="M173.7 564.1c0-17.6-14-32-31.7-32-17.6 0-32 14.3-32 32V713.2c0 41.2 33.4 74.6 74.6 74.6h149.2c17.6 0 32-14.3 32-32 0-17.6-14.3-31.7-32-31.7H184.7c-6.2 0.5-11.4-4.5-11-11v-149zM772.3 416c16 0 28.9-14.3 28.9-32s-12.9-32-28.9-32H251.7c-16 0-28.9 14.3-28.9 32s12.9 32 28.9 32h520.6zM850.3 711.3c0.4 6.5-4.8 11.5-11 11H690.2c-17.7 0-32 14-32 31.7s14.4 32 32 32h149.2c41.2 0 74.6-33.4 74.6-74.6v-149.1c0-17.7-14.4-32-32-32-17.7 0-31.7 14.4-31.7 32v149zM173.7 26.7c-0.4-6.5 4.8-11.5 11-11h149.1c17.7 0 32-14 32-31.7s-14.4-32-32-32H184.6c-41.2 0-74.6 33.4-74.6 74.6V175.7c0 17.7 14.4 32 32 32 17.7 0 31.7-14.4 31.7-32v-149zM850.3 175.7c0 17.6 14 32 31.7 32 17.6 0 32-14.3 32-32v-149.1c0-41.2-33.4-74.6-74.6-74.6H690.2c-17.6 0-32 14.3-32 32 0 17.6 14.3 31.7 32 31.7h149.1c6.2-0.5 11.4 4.5 11 11v149z"  horiz-adv-x="1024" />

    
    <glyph glyph-name="bangzhu" unicode="&#58935;" d="M512-63.2C265.3-63.2 64.3 137.6 64.3 384S265.3 831.2 512 831.2 959.7 630.4 959.7 384 758.7-63.2 512-63.2z m0 830.3c-211.4 0-383.6-171.9-383.6-383.1 0-211.1 172.2-383.1 383.6-383.1S895.6 172.8 895.6 384 723.4 767.1 512 767.1zM509 241.8c-15.5 0-32.3 12.7-32.3 28.1v47.9c0 41.8 25.1 67.6 52.8 90.1 6.1 5.1 14.7 10.3 20.3 15.5 38.5 34.8 60.5 70.2 51 99.7-9.4 28.1-19.9 45.8-51 55.1-31.1 9.4-63.9 7.8-86.1-9.6-50.8-41.3-43.5-89-43.5-91.4 1.4-15.5-13.9-29.1-29.4-30.5-15.5-1.4-33.1 10.3-34.5 25.8-0.5 3.3-6.6 83.1 68.7 143.7 36.7 29.5 88.4 38.5 137.3 24 48.9-14.5 85.6-49.3 100.6-95.8 16.4-51.6-7.1-112.2-63-162.9-6.6-6.1-13.6-11.7-20.3-17.3-24-19.8-38.1-32.4-38.1-46.5v-47.4c-0.3-16-15-28.6-30.5-28.6h-2zM468.6 164.2c0-24 19.4-43.4 43.4-43.4s43.4 19.4 43.4 43.4-19.4 43.4-43.4 43.4c-23.8-0.1-43.4-19.4-43.4-43.4z"  horiz-adv-x="1024" />

    
    <glyph glyph-name="gengduo1" unicode="&#58936;" d="M153.1 640H871c22.7 0 41.1 14.3 41.1 32s-18.3 32-41.1 32H153.1c-22.7 0-41.1-14.3-41.1-32s18.4-32 41.1-32zM870.9 416H153.1c-22.7 0-41.1-14.3-41.1-32s18.3-32 41.1-32H871c22.7 0 41.1 14.3 41.1 32-0.1 17.7-18.6 32-41.2 32zM870.9 128H153.1c-22.7 0-41.1-14.3-41.1-32s18.4-32 41.1-32H871c22.7 0 41.1 14.3 41.1 32-0.1 17.7-18.4 32-41.2 32z"  horiz-adv-x="1024" />

    
    <glyph glyph-name="bofang" unicode="&#58938;" d="M512-64C264.6-64 64 136.6 64 384S264.6 832 512 832s448-200.6 448-448-200.6-448-448-448zM399.3 580.3v-392l336 195.2-336 196.8z m0 0"  horiz-adv-x="1024" />

    
    <glyph glyph-name="dianxing" unicode="&#58939;" d="M512 111.9L788.9-64l-73.5 331.5 244.6 223-322.1 28.8L512 832 386.1 519.4 64 490.6l244.6-223L235.1-64 512 111.9z m0 0"  horiz-adv-x="1024" />

    
    <glyph glyph-name="beizhujinggao" unicode="&#58940;" d="M512 832C264.6 832 64 631.4 64 384s200.6-448 448-448 448 200.6 448 448S759.4 832 512 832z m0-831.6c-211.9 0-383.6 171.8-383.6 383.6S300.1 767.6 512 767.6 895.6 595.9 895.6 384 723.9 0.4 512 0.4zM512 517.3c-17.7 0-32-14.3-32-32v-352c0-17.7 14.3-32 32-32s32 14.3 32 32v352c0 17.7-14.3 32-32 32zM467.2 608c0-24.7 20.1-44.8 44.8-44.8 24.7 0 44.8 20.1 44.8 44.8s-20.1 44.8-44.8 44.8c-24.7 0-44.8-20.1-44.8-44.8z"  horiz-adv-x="1024" />

    
    <glyph glyph-name="ali" unicode="&#58941;" d="M924.7 537.8c-45 104.3-128.9 187-233.8 230.6C636.8 791 578.7 802.6 520 802.5c-48.6 0-96.1-7.6-141.3-22.8C273.1 828.2 151.1 832 116.1 832c-2.5 0-8.6 0-10.8-0.2-13.7-0.3-26.3-7.2-33.9-18.6-7.5-11.4-9-25.7-3.9-38.4L142 590.1c-40.1-66.7-61.2-143-61.2-220.8 0-58.8 11.6-115.4 34.6-168.7 22-51.6 54-98.4 94.1-137.7 40.2-39.6 87.6-71.2 139.7-92.8 54.1-22.6 112.2-34.2 170.8-34 58.8-0.1 117 11.5 171.2 34 105 43.5 188.8 126.3 233.7 230.6 46.2 107.6 46.1 229.5-0.1 337.1h-0.1z m-60.8-311.9c-18.8-44-46-83.9-80.1-117.5-34-33.9-74.4-60.7-118.8-79h-0.1c-46.2-19.2-95.8-29.1-145.8-29-50-0.1-99.4 9.8-145.6 29a372.743 372.743 0 0 0-198.8 196.4v0.1c-19.5 45.4-29.4 94.3-29.3 143.7 0 66.4 18 131.5 52 188.2l16 26.5-11.5 28.7-62.4 154.7c18.1-0.8 43.6-2.5 72.6-6.8 53.2-7.8 100.3-21 139.7-39.1l23.1-10.7 24.2 8.2c38.8 13 79.4 19.5 120.2 19.4 98.9 0.1 194-38.7 264.5-108.1 34.1-33.5 61.3-73.3 80-117.2l0.1-0.1 0.1-0.1c39.4-91.8 39.3-195.6-0.1-287.3zM707.8 534c-17.5 0.1-31.8-14-32-31.5v-46.8c0-17.4 14.3-31.5 32-31.5s32 14.2 32 31.5v46.8c-0.1 17.5-14.4 31.6-32 31.5zM504.7 534c-17.5 0.1-31.8-14-32-31.5v-46.8c0-17.4 14.4-31.5 32-31.5 17.7 0 32 14.2 32 31.5v46.8c-0.1 17.5-14.4 31.6-32 31.5z"  horiz-adv-x="1024" />

    
    <glyph glyph-name="fasong" unicode="&#58942;" d="M337.1 133.4l456 454.4-456.2-355L64 384 960 832 854.3-64 605.8 79.6 337.1-64V133.4zM789.6 584l-0.4 0.6 4 3.3-3.6-3.9z m0 0"  horiz-adv-x="1024" />

    
    <glyph glyph-name="bukejian" unicode="&#58943;" d="M275.2 610.6L214.9 671l39.6 39.6 73.2-73.2c56.8 24.5 118.3 36.8 184.3 36.8 185.5 0 334.8-96.5 448-289.2-50.8-88-109.6-155.9-176.1-203.7l84.2-84.2-39.6-39.6-93.2 93.2c-0.3-0.2-0.6-0.3-0.9-0.4L626.6 258l0.7 0.7-59.8 59.7c-0.2-0.2-0.4-0.4-0.7-0.6L446.6 438l0.5 0.7-61.1 61.2c-0.2-0.2-0.4-0.5-0.5-0.7l-111.2 111 0.9 0.4z m385.6-306.4c12.3 24 19.2 51.5 19.2 80.6 0 95.9-75.2 173.4-168 173.4-30.1 0-58.4-8.2-82.8-22.5l67.1-67.1c5.1 1.1 10.5 1.6 16 1.6 46.3 0 84-38.8 84-86.8 0-4.6-0.4-9.2-1.1-13.7l65.6-65.5zM227.3 578L356 449.3c-8-20.6-12-42.4-12-64.5 0-95.9 75.3-173.6 168-173.6 24 0 46.8 5.2 67.5 14.5l100.7-100.6c-53.8-20-110.8-30.1-168.2-29.6-187.1 0-336.5 96.5-448 289.3 47.9 81.7 102.4 146.1 163.3 193.2z m281.1-281.1l-80 80c3.3-43.6 37.5-78.2 80-80z m0 0"  horiz-adv-x="1024" />

    
    <glyph glyph-name="dingwei" unicode="&#58944;" d="M444 384c0-37.6 30.4-68 68-68s68 30.4 68 68-30.4 68-68 68-68-30.4-68-68zM930.1 413.9h-31.4c-14.6 190.2-166.6 342.3-356.9 356.9V802.1c0 16.5-13.4 29.9-29.9 29.9S482 818.6 482 802.1v-31.4c-190.2-14.6-342.3-166.6-356.9-356.9H93.9C77.4 413.9 64 400.5 64 384s13.4-29.9 29.9-29.9h31.4c14.6-190.2 166.6-342.3 356.9-356.9v-31.4c0-16.5 13.4-29.9 29.9-29.9s29.9 13.4 29.9 29.9v31.4c190.2 14.6 342.3 166.6 356.9 356.9h31.4c16.5 0 29.9 13.4 29.9 29.9s-13.6 29.9-30.1 29.9zM541.5 61.3v57.4c0 16.3-13.2 29.5-29.5 29.5s-29.5-13.2-29.5-29.5v-57.4c-155.3 14.1-279.1 138-293.2 293.2h57.4c16.3 0 29.5 13.2 29.5 29.5s-13.2 29.5-29.5 29.5h-57.4c14.1 155.3 138 279.1 293.2 293.2v-57.4c0-16.3 13.2-29.5 29.5-29.5s29.5 13.2 29.5 29.5v57.4c155.3-14.1 279.1-138 293.2-293.2h-57.4c-16.3 0-29.5-13.2-29.5-29.5s13.2-29.5 29.5-29.5h57.4c-14.1-155.2-138-279.1-293.2-293.2z"  horiz-adv-x="1024" />

    
    <glyph glyph-name="erweima1" unicode="&#58945;" d="M895.3 0.7V272H960v-336H624v64.7h271.3zM64 10.7V272h64.7v-271.3H400V-64H64v74.7z m896 746.6V496h-63.7V767.3H624V832h336v-74.7z m-831.3 10V496H64V832h336v-64.7H128.7zM64 416.3h896v-64.6H64v64.6z"  horiz-adv-x="1024" />

    
    <glyph glyph-name="fenxiang1" unicode="&#58946;" d="M611.6 567V776L960 410.2l-348.4-366V258.6C362.6 258.6 188.4 175 64-8c49.8 261.4 199.1 522.7 547.6 575z m0 0"  horiz-adv-x="1024" />

    
    <glyph glyph-name="fangda" unicode="&#58947;" d="M655.6 440.3H537.3V576.2c0 17.7-14.3 32-32 32s-32-14.3-32-32v-135.9H335.8c-17.7 0-32-14.3-32-32s14.3-32 32-32h137.5v-119.9c0-17.7 14.3-32 32-32s32 14.3 32 32V376.3h118.3c17.7 0 32 14.3 32 32s-14.4 32-32 32z m279.1-449.7L795.8 129.4c71.4 74.7 115.6 175.6 115.6 286.9C911.4 645.5 724.9 832 495.7 832S80 645.5 80 416.3s186.5-415.7 415.7-415.7c94.9 0 182.3 32.4 252.4 86.1l141.3-141.3c6-6 14.1-9.4 22.6-9.4 8.5 0 16.6 3.4 22.6 9.4 12.5 12.5 12.5 32.7 0.1 45.2zM144 416.3C144 610.2 301.8 768 495.7 768c193.9 0 351.7-157.8 351.7-351.8 0-193.9-157.8-351.7-351.7-351.7C301.8 64.6 144 222.4 144 416.3z m0 0"  horiz-adv-x="1024" />

    
    <glyph glyph-name="fujian" unicode="&#58948;" d="M599.2 193.1c-3.6 3.6-9.5 3.6-13.1 0L450.5 57.5c-62.8-62.8-198.4-69.4-267.7 0-69.4 69.4-62.7 204.9 0 267.7l135.6 135.6c3.6 3.6 3.6 9.5 0 13.2l-31.6 31.6c-3.6 3.6-9.5 3.6-13.2 0L138 370c-47.4-47.3-74-111.5-74-178.5S90.6 60.3 138 13c47.3-47.4 111.5-74 178.5-74s131.2 26.6 178.5 74l135.6 135.6c3.6 3.6 3.6 9.5 0 13.2l-31.4 31.3zM886 760.9c98.6-98.6 98.6-258.5 0-357.1L750.4 268.2c-3.6-3.6-9.5-3.6-13.2 0l-31.6 31.6c-3.6 3.7-3.6 9.6 0 13.2l135.6 135.5c62.8 62.8 69.4 198.3 0 267.7-69.3 69.4-204.9 62.8-267.7 0L438 580.7c-3.6-3.6-9.5-3.6-13.2 0l-31.5 31.5c-3.6 3.6-3.6 9.5 0 13.2L529 761c47.3 47.4 111.5 74 178.5 74 67-0.1 131.2-26.8 178.5-74.1zM633.5 542.8l31.3-31.4c3.6-3.6 3.6-9.5 0-13.2l-264.2-264c-3.6-3.6-9.5-3.6-13.2 0L356 265.5c-3.6 3.6-3.6 9.5 0 13.2l264.3 264.1c3.7 3.6 9.6 3.6 13.2 0z"  horiz-adv-x="1024" />

    
    <glyph glyph-name="gongnengqu" unicode="&#58949;" d="M512 608c61.6 0 112 50.4 112 112S573.6 832 512 832s-112-50.4-112-112 50.4-112 112-112z m0-112c-61.6 0-112-50.4-112-112s50.4-112 112-112 112 50.4 112 112-50.4 112-112 112z m0-336c-61.6 0-112-50.4-112-112s50.4-112 112-112 112 50.4 112 112-50.4 112-112 112z m0 0"  horiz-adv-x="1024" />

    
    <glyph glyph-name="gongnengruanjian" unicode="&#58950;" d="M64 832h410.6v-410.6H64V832z m0-485.4h410.6V-64H64V346.6zM549.4 832H960v-410.6H549.4V832z m0-485.4H960V-64H549.4V346.6z m0 0"  horiz-adv-x="1024" />

    
    <glyph glyph-name="kongjianweixuanzhong" unicode="&#58951;" d="M896 832H128c-35.3 0-64-28.7-64-64v-768c0-35.3 28.7-64 64-64h768c35.3 0 64 28.7 64 64V768c0 35.3-28.7 64-64 64zM128 0V768h768l0.1-768H128z m0 0"  horiz-adv-x="1024" />

    
    <glyph glyph-name="kejian" unicode="&#58952;" d="M511.5 104.2c-187 0-336.2 93.3-447.6 279.8C177 570.5 326.2 663.8 511.5 663.8S846 570.5 959.1 384C847.7 197.5 698.5 104.2 511.5 104.2z m0 56c123.6 0 223.8 100.2 223.8 223.8S635.1 607.8 511.5 607.8 287.7 507.6 287.7 384s100.2-223.8 223.8-223.8z m0 111.9c61.8 0 111.9 50.1 111.9 111.9s-50.1 111.9-111.9 111.9S399.6 445.8 399.6 384s50.1-111.9 111.9-111.9z"  horiz-adv-x="1024" />

    
    <glyph glyph-name="kefu" unicode="&#58953;" d="M830.7 111.1c-14.7-4.7-42-7.1-57.4-7.1H642.6V410.5h197.2v76.6c0 148.3-159.3 281.2-327.9 281.2-168.6 0-328.9-132.9-328.9-281.2v-76.6h198.2V104H250.7C178.4 104 120 155.4 120 219V487.2C120 677.6 295.5 832 512 832s392-154.4 392-344.8V48c0-61.9-50.1-112-112-112H481.9v63.9h280.8c30.9 0 68 37.1 68 68v43.2z m-12 0"  horiz-adv-x="1024" />

    
    <glyph glyph-name="kongjianxuanzhong" unicode="&#58954;" d="M896 832H128c-35.3 0-64-28.7-64-64v-768c0-35.3 28.7-64 64-64h768c35.3 0 64 28.7 64 64V768c0 35.3-28.7 64-64 64zM128 0V768h768l0.1-768H128z m0 0M744.6 588L434.3 256.7 276.6 389.2c-13.5 11.4-33.7 9.6-45.1-3.9-11.4-13.5-9.6-33.7 3.9-45.1l180.9-152c13-10.9 32.3-9.8 43.9 2.6l331.1 353.5c7.8 8.3 10.6 20.2 7.3 31.2a32.03 32.03 0 0 1-23.4 21.9c-11.1 2.5-22.7-1.1-30.6-9.4z m0 0"  horiz-adv-x="1024" />

    
    <glyph glyph-name="lajixiang" unicode="&#58955;" d="M362.6 757.4l56 74.6h186.7l56-74.6H904v-74.7H120v74.7h242.6zM213.4 608h597.3v-672H213.4V608z m261.2-149.4H400v-373.3h74.6V458.6z m149.4 0h-74.6v-373.3H624V458.6z m0 0"  horiz-adv-x="1024" />

    
    <glyph glyph-name="lanya" unicode="&#58956;" d="M411.7 400.2l188.1 200.5c5.8 6.2 8.8 14.5 8.3 23s-4.5 16.4-11 21.8L384.3 824.2c-9.2 7.7-22 9.4-32.9 4.3s-17.9-16-17.9-28v-322.8L166.1 643.8c-12.1 12-31.7 11.9-43.7-0.2-12-12.1-11.9-31.7 0.2-43.7l202.9-201.3-203.7-217.1c-11-12.6-10-31.5 2.1-42.9s31.1-11.1 43 0.6l166.6 177.6v-348.7c0-17.1 13.9-30.9 30.9-30.9 8.5 0 16.6 3.5 22.4 9.6l212.8 224.4c11.6 12.2 11.3 31.4-0.7 43.2L411.7 400.2z m-16.4 334l137-115-137-146.1V734.2z m0-688.6V329.3L534 191.8 395.3 45.6zM692.4 563c-9.5 14.2-28.7 18-42.9 8.5s-18-28.7-8.5-42.9c21.9-32.7 33.6-71.2 33.5-110.6 0.1-39.4-11.6-77.8-33.5-110.5-6.2-9.2-6.9-20.9-2.1-30.8 4.9-9.9 14.6-16.5 25.7-17.2 11-0.7 21.6 4.4 27.7 13.6 28.8 42.9 44.1 93.4 44 145 0.1 51.5-15.2 102-43.9 144.9z m185.2 14.9c-10.8 26.1-24.1 51-39.8 74.4-6.1 9.2-16.7 14.4-27.8 13.6-11-0.7-20.8-7.3-25.7-17.2-4.9-9.9-4.1-21.7 2.1-30.9 40.5-60.5 62.1-131.8 62-204.6 0.1-72.8-21.5-144-62-204.6-8.8-14.2-4.8-32.8 9.1-42 13.9-9.3 32.6-5.9 42.3 7.6 47.3 70.7 72.6 153.9 72.4 239 0.1 56.9-11 112.3-32.6 164.7z"  horiz-adv-x="1024" />

    
    <glyph glyph-name="lingsheng" unicode="&#58957;" d="M176 158l76 100 2.5 2.9c3.1 3.2 4.8 7.4 4.8 11.9V441.9c0 72.4 24.8 139.8 70.1 189.5 22.3 24.6 49.6 44.2 80 57.7 63.2 28 141.6 28 204.7 0 30.2-13.4 57.1-32.9 79.9-57.7 45.4-49.7 70-117.1 70-189.6v-169.1c0-4.4 1.6-8.4 3.8-10.6l2.9-3.2 76.4-100.2 1.2-93.5-671.7-0.7-0.6 93.5z m603.6-30l-57.8 75.8c-15.4 17-24 39.9-24 63.6V444.5c0 56.8-19 108.5-52.9 145.6-16.1 17.8-35.8 32-57.7 41.8-48.3 20.4-102.8 20.4-151.2 0-21.7-9.6-41.1-23.6-57.6-41.6-34-37.3-53-89-53-145.8v-177.1c0-23.8-8.7-46.5-24.5-64.2l-57.6-75.7 536.3 0.5zM362.5-0.2H661v-63.6H362.5v63.6z m74.7 832h149.2v-64H437.2v64z"  horiz-adv-x="1024" />

    
    <glyph glyph-name="liwu" unicode="&#58958;" d="M924.2 602.6H758.8c15.2 23.2 24.2 50.7 24.2 80.1C783 765 713.7 832 628.5 832c-46.4 0-88.1-19.9-116.5-51.3-29.8 32.8-72.1 51.4-116.5 51.3C310.3 832 241 765 241 682.6c0-29.4 8.8-56.9 24.2-80.1H99.8c-9.3 0.2-18.4-3.4-25.1-9.9C68 586.2 64.2 577.3 64 568v-206.7c0-4.8 4-8.6 9-8.6h44.8v-382c0-19.2 16-34.6 35.8-34.6h716.8c19.8 0 35.8 15.5 35.8 34.6l-0.4 382h44.8c4.9 0 9 3.9 9 8.6L960 568c-0.2 9.3-4 18.2-10.7 24.7-6.8 6.5-15.8 10-25.1 9.9z m-383.9 80c0 47 39.6 85.2 88.2 85.2s88.2-38.2 88.2-85.2-39.6-85.2-88.2-85.2h-88.2v85.2z m-144.8 85.3c48.6 0 88.2-38.2 88.2-85.2v-85.2h-88.2c-48.6 0-88.2 38.2-88.2 85.2s39.6 85.2 88.2 85.2zM129.8 416.5V544.9h350.1v-128.4H129.8z m52-63.9h298.3v-352.7H181.8V352.6z m660.4-352.7H544.1V352.6h298.1v-352.7z m51.6 416.6h-350V544.9h350.1v-128.4z"  horiz-adv-x="1024" />

    
    <glyph glyph-name="liebiaoyangshi" unicode="&#58959;" d="M64 432h352V784H64v-352z m64 288h224v-224H128V720zM64-16h352V336H64v-352z m64 288h224v-224H128V272z m398.8 416H928c17.7 0 32 14.3 32 32s-14.3 32-32 32H526.8c-17.7 0-32-14.3-32-32s14.4-32 32-32zM928 304H526.8c-17.7 0-32-14.3-32-32s14.3-32 32-32H928c17.7 0 32 14.3 32 32s-14.3 32-32 32z m0 224H526.8c-17.7 0-32-14.3-32-32s14.3-32 32-32H928c17.7 0 32 14.3 32 32s-14.3 32-32 32z m0-448H526.8c-17.7 0-32-14.3-32-32s14.3-32 32-32H928c17.7 0 32 14.3 32 32s-14.3 32-32 32z m0 0"  horiz-adv-x="1024" />

    
    <glyph glyph-name="quxiaozhiding" unicode="&#58960;" d="M456 215.9H176v112l168 69.6 41.5 322.3H288v112h112V832h224v-0.3h112v-112h-97.6L680 397.5l168-69.6v-112H568V-64H456V215.9z m0 0"  horiz-adv-x="1024" />

    
    <glyph glyph-name="quanping" unicode="&#58961;" d="M373.8 693H233.9c-17.1 0-30.9-13.8-30.9-30.9V529c0-17.1 13.8-30.9 30.9-30.9 17.1 0 30.9 13.8 30.9 30.9V631.2h109c17.1 0 30.9 13.8 30.9 30.9 0 17-13.8 30.9-30.9 30.9zM775.5 693H635.6c-17.1 0-30.9-13.8-30.9-30.9 0-17.1 13.8-30.9 30.9-30.9h109V529c0-17.1 13.8-30.9 30.9-30.9 17.1 0 30.9 13.8 30.9 30.9V662.1c0 17-13.9 30.9-30.9 30.9zM373.8 127.2h-109V229.5c0 17.1-13.8 30.9-30.9 30.9-17.1 0-30.9-13.8-30.9-30.9v-133.2c0-17.1 13.8-30.9 30.9-30.9h139.9c17.1 0 30.9 13.8 30.9 30.9 0 17.1-13.8 30.9-30.9 30.9zM775.5 260.4c-17.1 0-30.9-13.8-30.9-30.9v-102.3h-109c-17.1 0-30.9-13.8-30.9-30.9 0-17.1 13.8-30.9 30.9-30.9h139.9c17.1 0 30.9 13.8 30.9 30.9V229.5c0 17.1-13.9 30.9-30.9 30.9zM898.2 832H125.8C91.7 832 64 804.3 64 770.2v-772.4c0-34.1 27.7-61.8 61.8-61.8h772.4c34.1 0 61.8 27.7 61.8 61.8V770.2c0 34.1-27.7 61.8-61.8 61.8zM128.4 0.4V767.6h767.3l0.1-767.3H128.4z"  horiz-adv-x="1024" />

    
    <glyph glyph-name="suoxiao" unicode="&#58962;" d="M495.5 1.7c-228.7 0-414.8 186.1-414.8 414.8s186 414.8 414.8 414.8 414.8-186.1 414.8-414.8-186.1-414.8-414.8-414.8z m0 765.8c-193.5 0-351-157.5-351-351s157.5-351 351-351 351 157.5 351 351-157.5 351-351 351zM655 376.6H335.9c-17.6 0-31.9 14.3-31.9 31.9s14.3 31.9 31.9 31.9H655c17.6 0 31.9-14.3 31.9-31.9 0-17.6-14.3-31.9-31.9-31.9z m256-439.4c-8.5 0-16.6 3.4-22.6 9.3L728.2 106.7c-12.5 12.5-12.5 32.7 0 45.1 12.5 12.5 32.7 12.5 45.1 0l160.2-160.2c9.2-9.1 11.9-22.9 7-34.8-5-11.9-16.6-19.6-29.5-19.6z"  horiz-adv-x="1024" />

    
    <glyph glyph-name="tingzhi" unicode="&#58963;" d="M512-64C264.6-64 64 136.6 64 384S264.6 832 512 832s448-200.6 448-448-200.6-448-448-448zM344 552v-336h336V552H344z"  horiz-adv-x="1024" />

    
    <glyph glyph-name="tianjiafabu" unicode="&#58964;" d="M512-64C264.6-64 64 136.6 64 384S264.6 832 512 832s448-200.6 448-448-200.6-448-448-448z m0 59.7c214.4 0 388.3 173.8 388.3 388.3S726.4 772.3 512 772.3 123.7 598.4 123.7 384 297.6-4.3 512-4.3z m0 0M273.1 354.1c-16.5 0-29.9 13.4-29.9 29.9s13.4 29.9 29.9 29.9H751c16.5 0 29.9-13.4 29.9-29.9s-13.4-29.9-29.9-29.9H273.1z m0 0M482.1 622.9c0 16.5 13.4 29.9 29.9 29.9s29.9-13.4 29.9-29.9V145c0-16.5-13.4-29.9-29.9-29.9s-29.9 13.4-29.9 29.9V622.9z m0 0"  horiz-adv-x="1024" />

    
    <glyph glyph-name="tianjiatupian" unicode="&#58965;" d="M870.4 277c0 5.2-2.7 10-7.2 12.8l-160.9 98.1c-6.4 3.9-14.6 2.5-19.3-3.3l-71-86.4-1-1.1c-5.8-5.8-15.3-5.9-21.1 0L354 532.3c-5.6 5.6-14.7 5.8-20.6 0.5L158.5 373.5c-3.1-2.8-4.9-6.8-4.9-11v-247.3h716.8V277zM721.1 563.2c0-33 26.7-59.7 59.7-59.7s59.7 26.7 59.7 59.7-26.7 59.7-59.7 59.7-59.7-26.7-59.7-59.7zM64 742.4v-716.8h896V742.4H64z m831.1-653.1H128.9V678.7h766.3v-589.4z"  horiz-adv-x="1024" />

    
    <glyph glyph-name="shenpi" unicode="&#58966;" d="M500.9 316.7v23.4c35.3 22.4 69.3 61.7 87.9 110 13.2 5.6 22.6 21.4 30.2 49.6 5.9 21.9-3.6 36.3-16.4 44.3-6.3 103-67.7 162.3-161.7 162.3-95.4 0-159.7-61-164.6-166.8-11.6-9.4-19-24.4-13.2-45.8 8.3-30.6 18.4-48.1 32.4-54.8 19.9-43.4 52.3-78.5 85.5-99.2v-23.1c-92.3-9.6-160-41.3-160-78.8 0-45.3 439.7-45.3 439.7 0 0 37.5-67.6 69.2-159.8 78.9z m0 0M849.2 141V737.8c0 52-42.2 94.2-94.2 94.2H158.2c-52 0-94.2-42.2-94.2-94.2V141c0-52 42.2-94.2 94.2-94.2H755c52 0 94.2 42.2 94.2 94.2z m-722.4 0V737.8c0 17.3 14.1 31.4 31.4 31.4H755c17.3 0 31.4-14.1 31.4-31.4V141c0-17.3-14.1-31.4-31.4-31.4H158.2c-17.3 0-31.4 14.1-31.4 31.4z m0 0M928.6 732c-17.3 0-31.4-14.1-31.4-31.4v-666.5c0-19.5-15.8-35.2-35.2-35.2H262.1c-17.3 0-31.4-14.1-31.4-31.4 0-17.3 14.1-31.4 31.4-31.4H862c26 0 50.9 10.3 69.3 28.7s28.7 43.3 28.7 69.3V700.6c0 17.4-14.1 31.4-31.4 31.4z m0 0"  horiz-adv-x="1024" />

    
    <glyph glyph-name="gouwuche" unicode="&#58967;" d="M960 678.9H312.1l-24.2 98.2H64v-98.2h140.2l115.5-526.7c-26.2-14.9-43.9-42.6-43.9-74.5 0-47.4 39-85.9 87.2-85.9s87.3 38.5 87.3 85.9c0 24.1-10.1 45.8-26.2 61.4h326.6c-16.7-16-26.2-38.2-26.2-61.4 0-47.4 39-85.9 87.2-85.9s87.3 38.5 87.3 85.9c-0.1 33.1-19.2 63.2-49.2 77.3l20.2 82.2H403.9l-10.2 49.1h487.5L960 678.9z m0 0"  horiz-adv-x="1024" />

    
    <glyph glyph-name="wenzi" unicode="&#58968;" d="M922.6 753.5H101.4c-20.6 0-37.3 14.5-37.3 32.3 0 17.8 16.7 32.3 37.3 32.3h821.1c20.6 0 37.3-14.5 37.3-32.3 0.1-17.9-16.6-32.3-37.2-32.3zM512-50.1c-17.7 0-32 16.7-32 37.3V746.6c0 20.6 14.3 37.3 32 37.3s32-16.7 32-37.3v-759.4c0-20.6-14.3-37.3-32-37.3z m0 0"  horiz-adv-x="1024" />

    
    <glyph glyph-name="wuxian" unicode="&#58969;" d="M63.9 511.6l81.4-79c202.2 196.4 530.2 196.4 732.5 0l81.4 79c-247.1 239.8-647.9 239.8-895.3 0z m325.5-316L511.5 77l122.1 118.5c-67.1 65.6-176.6 65.6-244.2 0.1zM226.7 353.5l81.4-79c112.3 109.1 294.6 109.1 406.9 0l81.4 79C639.3 506 384.2 506 226.7 353.5z"  horiz-adv-x="1024" />

    
    <glyph glyph-name="xihuandianzan" unicode="&#58970;" d="M729.3 742.4c41.8 0 80.5-9.6 115.8-28.7 35-18.7 63.9-45.5 83.9-77.7 20.6-32.5 31.3-69.5 31-107.1 0-27.8-5.8-54.8-17.2-81-11.5-26.2-28.6-50-50.3-69.9L512 25.6 131.6 377.9C88.2 418.2 64 472.4 64 528.9c0 38.7 10.3 74.4 31 107.2 20 32.1 48.9 58.9 83.8 77.7 35.1 19.1 75.1 29 115.9 28.7 61.3 0 120-22.5 163-62.6l54.3-50.3 54.4 50.3c21.5 20.1 47.2 35.9 75.5 46.6 27.7 10.6 57.5 16 87.5 16h-0.1z m0 0"  horiz-adv-x="1024" />

    
    <glyph glyph-name="xiangji" unicode="&#58971;" d="M605.6 733.7H418.4c-17.9 0-34.7-8.6-45.3-23l-68.2-93.8c-10.5-14.5-27.4-23-45.3-23H120.3c-30.9 0-56-25.1-56-56v-447.6c0-30.9 25.1-56 56-56h783.3c30.9 0 56 25 56 56V537.9c0 30.9-25.1 56-56 56H764.3c-17.9 0-34.7 8.6-45.3 23l-68.2 93.8c-10.5 14.4-27.3 23-45.2 23z m-2.6-63.9l66.4-91.3c20.4-28.1 53.3-44.8 88.1-44.8h135.6v-435.5H130.9V533.7h135.6c34.7 0 67.6 16.8 88 44.8l66.4 91.3H603M512 174.2c92.6 0 167.9 75.3 167.9 167.9S604.6 509.9 512 509.9c-92.6 0-167.9-75.3-167.9-167.9S419.4 174.2 512 174.2m0 63.9c-57.4 0-104 46.5-104 104s46.5 104 104 104c57.4 0 104-46.5 104-104s-46.6-104-104-104zM246.2 681.8H134.3c-15.5 0-28-14.3-28-32s12.5-32 28-32h111.9c15.5 0 28 14.3 28 32 0 17.6-12.5 32-28 32z"  horiz-adv-x="1024" />

    
    <glyph glyph-name="xinjian" unicode="&#58972;" d="M592.6 314.4C541.1 266.1 511.9 198.6 512 128c-0.1-73.5 31.5-143.5 86.7-192H64V100.5C64 246.5 362.5 320 512 320c23.7 0 51.2-1.9 80.6-5.6zM512 832c123.8 0 224-100.2 224-224S635.8 384 512 384c-59.4 0-116.4 23.6-158.4 65.6-42 42-65.6 99-65.6 158.4 0 123.8 100.2 224 224 224z m320-512v-128h128v-128H832v-128H704V64H576V192h128V320h128z m0 0"  horiz-adv-x="1024" />

    
    <glyph glyph-name="yingwen" unicode="&#58973;" d="M232.2 196.7V569.8h276.7v-63.1H307.5v-82.8h187.3V361H307.5v-101.5H516v-62.9H232.2z m560.5 0h-71.5v138c0 29.2-1.5 48.1-4.6 56.7-2.7 8.1-7.9 15.1-14.9 20a42 42 0 0 1-24.8 7.1c-12.4 0-23.5-3.4-33.3-10.2-9.8-6.8-16.6-15.8-20.2-27-3.6-11.2-5.5-31.9-5.5-62.1v-122.4h-71.5V467h66.4v-39.7c23.6 30.6 53.3 45.8 89.1 45.8 15.8 0 30.2-2.8 43.3-8.5 13.1-5.7 23-12.9 29.6-21.8 6.7-8.8 11.4-18.8 14-30 2.6-11.2 3.9-27.2 3.9-48.1v-168z m0 0M161.7 766.8c-18 0-32.6-14.6-32.6-32.6v-700.5c0-18 14.6-32.6 32.6-32.6h700.5c18 0 32.6 14.6 32.6 32.6V734.3c0 18-14.6 32.6-32.6 32.6H161.7z m0 65.2h700.5c54 0 97.7-43.8 97.7-97.7v-700.5c0-54-43.8-97.7-97.7-97.7H161.7c-54 0-97.7 43.8-97.7 97.7V734.3c-0.1 53.9 43.7 97.7 97.7 97.7z m0 0"  horiz-adv-x="1024" />

    
    <glyph glyph-name="zhongwen" unicode="&#58974;" d="M161.7 766.8c-18 0-32.6-14.6-32.6-32.6v-700.5c0-18 14.6-32.6 32.6-32.6h700.5c18 0 32.6 14.6 32.6 32.6V734.3c0 18-14.6 32.6-32.6 32.6l-700.5-0.1z m0 65.2h700.5c54 0 97.7-43.8 97.7-97.7v-700.5c0-54-43.8-97.7-97.7-97.7H161.7c-54 0-97.7 43.8-97.7 97.7V734.3c-0.1 53.9 43.7 97.7 97.7 97.7z m328-185.6h60.7v-96.1H750v-243.4H550.4v-187.8h-60.7V306.9h-199V550.3h199v96.1z m-140-282.2h140V492.9h-140v-128.7z m200.7 0H691V492.9H550.4v-128.7z"  horiz-adv-x="1024" />

    
    <glyph glyph-name="zanting" unicode="&#58975;" d="M512-64C264.6-64 64 136.6 64 384S264.6 832 512 832s448-200.6 448-448-200.6-448-448-448zM344 552v-336h112V552H344z m224 0v-336h112V552H568z"  horiz-adv-x="1024" />

    
    <glyph glyph-name="zhidingzhong" unicode="&#58976;" d="M309.6 261.5L110.1 461.1l81.9 82 170.8-68.8 265.5 206.3-69.6 69.6 82 81.9 79.8-79.7 0.2 0.1 159.7-159.6-0.2-0.2 79.8-79.8-81.9-82-69.6 69.5-206.3-265.7L671 64.1l-81.9-82-199.6 199.5L143.8-64 64 15.8l245.6 245.7z m0 0"  horiz-adv-x="1024" />

    
    <glyph glyph-name="xiaoxipinglun" unicode="&#58977;" d="M512-64C264.6-64 64 136.6 64 384S264.6 832 512 832s448-200.6 448-448-200.6-448-448-448z m0 64.4c211.9 0 383.6 171.8 383.6 383.6 0 211.9-171.8 383.6-383.6 383.6-211.9 0-383.6-171.8-383.6-383.6 0-211.9 171.7-383.6 383.6-383.6zM344 334c-27.6 0-50 22.4-50 50s22.4 50 50 50 50-22.4 50-50-22.4-50-50-50zM512 334c-27.6 0-50 22.4-50 50s22.4 50 50 50 50-22.4 50-50-22.4-50-50-50zM680 334c-27.6 0-50 22.4-50 50s22.4 50 50 50 50-22.4 50-50-22.4-50-50-50z"  horiz-adv-x="1024" />

    
    <glyph glyph-name="zuzhiqunzu" unicode="&#58978;" d="M930.1 204.8h-59.4V361c0 16.5-13.4 29.9-29.9 29.9h-299l3 82.7h146.3c16.5 0 29.9 13.4 29.9 29.9V772.3c0 16.5-13.4 29.9-29.9 29.9H332.8c-16.5 0-29.9-13.4-29.9-29.9v-268.8c0-16.5 13.4-29.9 29.9-29.9h149.3v-82.7H185.3c-16.5 0-29.9-13.4-29.9-29.8l-0.2-156.3H93.9c-16.5 0-29.9-13.4-29.9-29.9v-179.2c0-16.5 13.4-29.9 29.9-29.9h179.2c16.5 0 29.9 13.4 29.9 29.9V174.9c0 16.5-13.4 29.9-29.9 29.9H218l0.1 123.4h263v-123.4h-58.7c-16.5 0-29.9-13.4-29.9-29.9v-179.2c0-16.5 13.4-29.9 29.9-29.9h179.2c16.5 0 29.9 13.4 29.9 29.9V174.9c0 16.5-13.4 29.9-29.9 29.9h-56.7V328.2H807v-123.4h-56.1c-16.5 0-29.9-13.4-29.9-29.9v-179.2c0-16.5 13.4-29.9 29.9-29.9h179.2c16.5 0 29.9 13.4 29.9 29.9V174.9c0 16.5-13.4 29.9-29.9 29.9zM367.2 739.2h289.6v-202.7H367.2V739.2zM239.1 29.7H127.9V140.9h111.2v-111.2z m328.5 0H456.4V140.9h111.2v-111.2z m328.5 0H784.9V140.9h111.2v-111.2z"  horiz-adv-x="1024" />

    
    <glyph glyph-name="luxiang" unicode="&#58979;" d="M938 604.5c-14.9 8.8-34 8.3-52-1.6l-105.1-57.6V712.5H64v-657.1h716.8V252.6L885.9 195c9.6-5.3 19.4-7.9 28.8-7.9 8.3 0 16.2 2.1 23.3 6.2 14 8.3 22 23.4 22 41.3V563.2c0 18-8 33-22 41.3zM716.8 119.1H128V648.9h588.7v-529.8z m179.4 146l-111.3 61V471.8l111.3 60.9v-267.6z"  horiz-adv-x="1024" />

    
    <glyph glyph-name="wenjianjia" unicode="&#58980;" d="M63.9 776.2h353.5L511 658.7h448.2v-665.9H63.9V776.2z"  horiz-adv-x="1024" />

    
    <glyph glyph-name="xiazai1" unicode="&#58981;" d="M830.9 274.3c-13.5 13.5-35.3 13.5-48.7 0L562.9 55.5V659.7c0 19-15.5 34.5-34.5 34.5s-34.5-15.5-34.5-34.5v-606.3L242 306.9c-13.5 13.6-35.3 13.6-48.7 0.1-13.5-13.5-13.6-35.3-0.1-48.7l309.6-311.5c3.4-3.5 7.4-5.9 11.7-7.7 4.3-1.9 9-3.1 14.1-3.1 12.1 0 22.3 6.6 28.4 16.2l273.9 273.5c13.3 13.3 13.3 35.1 0 48.6zM891.1 768H132.9c-19 0-34.5 14.2-34.5 32s15.5 32 34.5 32h758.2c19.1 0 34.5-14.2 34.5-32s-15.4-32-34.5-32z"  horiz-adv-x="1024" />

    
    <glyph glyph-name="shangchuan1" unicode="&#58982;" d="M193.1 493.7c13.5-13.5 35.3-13.5 48.7 0l219.3 218.8v-604.2c0-19 15.5-34.5 34.5-34.5s34.5 15.5 34.5 34.5V714.6l252-253.5c13.5-13.6 35.3-13.6 48.7-0.1 13.5 13.5 13.6 35.3 0.1 48.7L521.3 821.2c-3.4 3.5-7.4 5.9-11.7 7.7-4.3 1.9-9 3.1-14.1 3.1-12.1 0-22.3-6.6-28.4-16.2l-274-273.5c-13.3-13.3-13.3-35.1 0-48.6zM132.9 0h758.2c19 0 34.5-14.3 34.5-32s-15.5-32-34.5-32H132.9c-19.1 0-34.5 14.3-34.5 32s15.4 32 34.5 32z"  horiz-adv-x="1024" />

    
    <glyph glyph-name="bianjipinglun" unicode="&#58983;" d="M733 699.3l-85.2 85.2 51.7 51.7c21 21 55 21 76 0l9.2-9.2c21-21 21-55 0-76L733 699.3z m-83.8-83.8L215.1 181.4c-5.7-5.7-12.6-10-20.2-12.7l-79.4-27.9c-9.3-3.3-19.6 1.6-22.8 11-1.3 3.6-1.3 7.5-0.2 11.1l24.9 82.2c2.6 8.5 7.2 16.2 13.4 22.4L564 700.7l85.2-85.2zM108.8 63.6h806.4c24.7 0 44.8-20.1 44.8-44.8 0-24.7-20.1-44.8-44.8-44.8H108.8C84.1-26 64-6 64 18.8c0 24.7 20.1 44.8 44.8 44.8z"  horiz-adv-x="1024" />

    


  </font>
</defs>
</svg>
